<?xml version="1.0" standalone="no"?>
<!DOCTYPE svg PUBLIC "-//W3C//DTD SVG 1.1//EN" "http://www.w3.org/Graphics/SVG/1.1/DTD/svg11.dtd" >
<svg>
<metadata>
Created by FontForge 20090622 at Sun Aug 10 04:48:03 2014
 By ffonts
Generated by Metamorphosis Professional 2.02
</metadata>
<defs>
<font id="Keyes-Regular" horiz-adv-x="555" >
  <font-face 
    font-family="Keyes"
    font-weight="5"
    font-stretch="normal"
    units-per-em="1000"
    panose-1="0 0 0 0 0 0 0 0 0 0"
    ascent="800"
    descent="-200"
    x-height="517"
    cap-height="714"
    bbox="-173 -225 1264 941"
    underline-thickness="73"
    underline-position="-70"
    unicode-range="U+0020-U+F002"
  />
<missing-glyph horiz-adv-x="781" 
d="M48 0v781h685v-781h-685zM685 48v685h-589v-685h589z" />
    <glyph glyph-name=".notdef" horiz-adv-x="781" 
d="M48 0v781h685v-781h-685zM685 48v685h-589v-685h589z" />
    <glyph glyph-name=".null" horiz-adv-x="0" 
 />
    <glyph glyph-name="controlCR" horiz-adv-x="250" 
 />
    <glyph glyph-name="space" unicode=" " horiz-adv-x="250" 
 />
    <glyph glyph-name="exclam" unicode="!" horiz-adv-x="335" 
d="M226 338q0 -28 -13.5 -50.5t-35.5 -22.5q-19 0 -25.5 27t-10 54.5t-11 104t-7.5 141.5q-1 6 -1 14v12q0 43 15.5 72t51.5 29t45.5 -25.5t9.5 -71.5q0 -57 -9 -152.5t-9 -131.5zM190 116q21 0 33.5 -12.5t12.5 -29.5t-11 -30t-32 -13q-28 0 -44 13t-16 31q0 17 14.5 29
t42.5 12z" />
    <glyph glyph-name="quotedbl" unicode="&#x22;" horiz-adv-x="475" 
d="M357 599q-9 0 -19.5 25.5t-10.5 47.5q-1 15 -1 22q0 14 4.5 20t20.5 6q20 0 25 -17.5t5 -61.5q0 -18 -7 -30t-17 -12zM120 599q-9 0 -17 15.5t-8 38.5q0 7 -0.5 16.5t-1.5 22.5q0 17 5.5 22.5t15.5 5.5q20 0 25 -17.5t5 -61.5q0 -18 -7 -30t-17 -12z" />
    <glyph glyph-name="numbersign" unicode="#" 
d="M473 437q0 -6 -33.5 -39.5t-33.5 -75.5q0 -38 15 -68t15 -41q0 -13 -39.5 -46t-56.5 -81q-19 -42 -40 -42q-8 0 -8 12q0 7 5.5 26t5.5 39q0 32 -15 53t-39 21q-22 0 -45.5 -20t-45.5 -65t-34 -45q-9 0 -9 25q0 9 1 14q3 26 -18.5 56.5t-18.5 46.5q3 18 53 53t56 56
t-25.5 63.5t-31.5 57.5q0 6 5.5 18.5t54.5 61.5t60.5 84t25.5 35q9 0 9 -29q0 -12 -1 -21t-1.5 -22t-0.5 -19q0 -33 12 -49.5t45 -16.5q27 0 52.5 48t35.5 70t19.5 34t17.5 12q14 0 14 -49q0 -33 -3 -89.5t-3 -67.5zM309 425q-30 0 -72.5 -36t-42.5 -67q0 -40 26 -62.5
t65 -22.5q32 0 49.5 33t21 54t3.5 31q0 26 -13.5 48t-36.5 22z" />
    <glyph glyph-name="dollar" unicode="$" 
d="M413 -9q-37 -18 -69.5 -47t-51.5 -62q-34 51 -85.5 74.5t-85.5 49t-51 53.5t-17 52q0 18 9.5 28t30.5 10q51 0 74 -26l31.5 -45t35.5 -19q14 0 26 7t32 22q23 -26 63 -26q30 0 50.5 17t20.5 51q0 44 -25 70t-59 26q-20 0 -37 -11q-22 18 -61.5 65t-91.5 79t-77 70t-25 89
q0 53 36 104.5t82 62t90 45.5t47 36q7 -9 15.5 -34t59.5 -45.5t81.5 -56t30.5 -58.5q0 -9 -12 -14t-29 -5q-18 0 -30 6t-15.5 26t-38.5 20t-62 -27q-46 37 -67 37q-8 0 -21.5 -3.5t-38.5 -30.5t-25 -63q0 -37 28.5 -64t56.5 -33q20 -4 33.5 6.5t27.5 29.5q17 -14 47 -45.5
t68.5 -59t82.5 -75t44 -110.5q0 -43 -31.5 -92t-96.5 -84z" />
    <glyph glyph-name="percent" unicode="%" horiz-adv-x="890" 
d="M643 5q-63 38 -95 62.5t-32 82.5q0 69 30 118t63.5 54t47.5 5q40 0 79.5 -11.5t63.5 -31.5q29 -17 41.5 -53.5t12.5 -80.5q0 -58 -43.5 -111t-102.5 -53q-33 0 -65 19zM321 224q-13 -16 -83.5 -117t-105.5 -101q-9 0 -17.5 7t-15.5 15t-7 14q0 12 34.5 42.5t155 160.5
l221.5 246.5t131.5 162t47 59t28.5 13.5q11 0 17 -10t6 -25q0 -17 -6.5 -32t-26 -30t-83.5 -82.5l-170.5 -183.5t-125.5 -139zM203 360q-68 0 -119 51t-51 119q0 62 41 105t84.5 49t66.5 6q30 0 52 -5.5t41 -21.5q29 -17 41.5 -53t12.5 -80q0 -68 -50 -119t-119 -51z
M679 265q-40 0 -71.5 -33.5t-31.5 -75.5q0 -40 31 -71t72 -31t72 30t31 72t-31.5 75.5t-71.5 33.5zM197 645q-40 0 -71.5 -33.5t-31.5 -75.5q0 -41 31 -72t72 -31t72 31t31 72q0 42 -31.5 75.5t-71.5 33.5z" />
    <glyph glyph-name="ampersand" unicode="&#x26;" horiz-adv-x="720" 
d="M562 11q-22 14 -37.5 23t-31.5 9q-6 0 -16 -1.5t-86 -28t-125 -26.5q-95 0 -150.5 61.5t-55.5 144.5q0 49 42 113l91 123q-14 29 -25 62.5t-11 76.5q0 64 43 111t102 47q12 0 18 -1q70 0 120 -42t50 -109q0 -44 -30 -89l-67 -87q0 -19 10.5 -38t30.5 -39l37.5 -36
t31.5 -16q18 0 38.5 23.5t37.5 35.5t30 12q16 0 16 -25q0 -7 -0.5 -14.5t-16.5 -62.5t-16 -83q0 -25 19 -53q17 -21 23.5 -32.5t6.5 -27.5q0 -11 -6 -25q-11 -17 -36 -17q-17 0 -37 11zM332 495q30 0 49 26t19 59q0 29 -15 48t-46 19q-42 0 -62 -19t-20 -48q0 -33 22 -59
t53 -26zM284 326q-52 0 -80.5 -46.5t-28.5 -110.5q0 -54 39 -84.5t82 -30.5q57 0 89 34t32 68q0 38 -42 104t-91 66z" />
    <glyph glyph-name="quotesingle" unicode="'" horiz-adv-x="240" 
d="M119 599q-9 0 -20 25.5t-11 47.5q-1 15 -1 22q0 14 5 20t21 6q20 0 25 -17.5t5 -61.5q0 -18 -7 -30t-17 -12z" />
    <glyph glyph-name="parenleft" unicode="(" horiz-adv-x="335" 
d="M193 561q-21 -58 -34.5 -154t-13.5 -161q0 -83 15.5 -161.5l32.5 -158.5q0 -17 -11 -17q-32 0 -77 91.5t-45 215.5q0 141 43 240q51 90 66 123l45 114q17 31 36 31q7 0 16 -6q6 -2 6 -9q0 -13 -35.5 -72.5t-43.5 -75.5z" />
    <glyph glyph-name="parenright" unicode=")" horiz-adv-x="335" 
d="M105 -115q23 76 41.5 177t18.5 216q0 124 -18 214l-42 161q0 19 1.5 27.5t6.5 8.5q8 0 38.5 -35t76.5 -159.5t46 -204.5q0 -132 -30.5 -226t-69.5 -141t-61 -47q-8 0 -8 9z" />
    <glyph glyph-name="asterisk" unicode="*" horiz-adv-x="390" 
d="M226 468q-23 15 -48 15q-19 0 -31.5 -4.5t-34.5 -16.5q-3 14 -5 26.5t-2 28.5q0 58 -11 74q2 -1 5 -2q20 -4 37.5 10.5t47.5 44.5q15 -18 50 -42.5t35 -48.5q0 -15 -20 -41t-23 -44z" />
    <glyph glyph-name="plus" unicode="+" horiz-adv-x="585" 
d="M432 187q-52 0 -77 -24t-25 -67q0 -62 -7 -88.5t-30 -26.5q-19 0 -33.5 30.5t-14.5 78.5q0 39 -20.5 68t-52.5 29q-60 0 -87.5 3t-27.5 33q0 33 10 41t52 8h41q31 0 55 33.5t24 69.5q0 60 14.5 78t39.5 18q17 0 30 -21.5t13 -74.5q0 -41 27 -69t69 -28h21q46 0 61 -12
t15 -37q0 -27 -19 -34.5t-54 -7.5h-24z" />
    <glyph glyph-name="comma" unicode="," horiz-adv-x="280" 
d="M168 -30l-30 48q-20 20 -28.5 31.5t-8.5 23.5q0 33 11.5 43.5t37.5 10.5q20 0 31 -23t11 -50q0 -24 -5.5 -45t-18.5 -39z" />
    <glyph glyph-name="hyphen" unicode="-" horiz-adv-x="335" 
d="M230 236q-40 0 -72 9t-49 9q-18 0 -30 10t-12 22q0 23 42 23h127q20 0 31 -9t11 -34q-4 -11 -12.5 -20.5t-35.5 -9.5z" />
    <glyph glyph-name="period" unicode="." horiz-adv-x="280" 
d="M141 121q22 0 32.5 -12.5t10.5 -30.5q0 -17 -9.5 -29.5t-27.5 -12.5q-25 0 -39 13t-14 32q0 16 12 28t35 12z" />
    <glyph glyph-name="slash" unicode="/" horiz-adv-x="280" 
d="M170 388q-49 -124 -78.5 -259t-41.5 -135q-4 0 -23 8.5t-19 34.5q0 21 38.5 122.5t70.5 203t60 224.5t59 123q34 0 34 -33q0 -44 -100 -289z" />
    <glyph glyph-name="zero" unicode="0" 
d="M282 -16q-106 0 -177 96.5t-71 248.5q0 171 59 276t195 105q84 0 157 -91t73 -254q0 -175 -65.5 -278t-170.5 -103zM276 655q-63 0 -101 -75.5t-38 -256.5q0 -121 31.5 -200t113.5 -79t113.5 93.5t31.5 233.5q0 125 -36.5 204.5t-114.5 79.5z" />
    <glyph glyph-name="one" unicode="1" 
d="M318 2q-24 0 -33 15.5t-9 63.5q0 31 -6 141t-6 155q0 58 -38 104.5t-65 46.5q-22 6 -22 13q0 5 20 16t36 21t56.5 62t60.5 52q33 0 41 -27t8 -94q0 -83 -2.5 -206t-2.5 -129q0 -38 1 -74t3 -56t2 -26v-11q0 -35 -11.5 -51t-32.5 -16z" />
    <glyph glyph-name="two" unicode="2" 
d="M365 272l-83 -80q-38 -41 -38 -71q0 -28 13 -35t45 -7h26q41 0 87 -8t46 -29q0 -23 -17 -32.5t-61 -9.5h-279q-53 0 -53 52q0 31 29 75q39 54 134.5 132.5t141 128t45.5 114.5q0 89 -38.5 117t-106.5 28q-31 0 -75.5 -54.5t-70.5 -54.5q-20 0 -27.5 8.5t-7.5 22.5
q0 9 2.5 25t2.5 17q0 30 47 69.5t141 39.5q91 0 169.5 -43t78.5 -151q0 -103 -53 -165q-68 -59 -98 -89z" />
    <glyph glyph-name="three" unicode="3" 
d="M239 -18q-71 0 -114.5 43t-55.5 73t-12 46q0 18 7 27.5t24 9.5q12 0 23.5 -8.5t34.5 -32l50 -51.5q32 -29 67 -29q59 0 102 42t43 98q0 58 -41 102l-86 79q40 47 68.5 85t28.5 72q0 53 -30 87t-73 34q-27 0 -52.5 -15.5t-49.5 -44.5q-19 -18 -34 -24t-39 -6
q-14 0 -21.5 8.5t-7.5 24.5q0 42 49.5 86t130.5 44q85 0 151.5 -49.5t66.5 -131.5q0 -64 -15 -97l-33 -61q0 -12 39 -68t39 -137q0 -96 -83 -151t-177 -55z" />
    <glyph glyph-name="four" unicode="4" 
d="M433 73q0 -37 -9 -55t-39 -18t-42.5 17.5t-12.5 55.5q0 43 -19.5 72.5t-65.5 29.5q-23 0 -60.5 -2.5t-42.5 -2.5q-27 0 -48 6.5t-35.5 23.5t-14.5 39q0 31 25 62.5t55 43.5l16 -68q18 -41 75 -41q64 0 92.5 26.5t28.5 70.5v151q0 20 -11.5 36t-30.5 16q-21 0 -43 -22
t-42.5 -31.5t-23.5 -16.5q3 27 7 55q4 16 24.5 47.5l49.5 74.5q48 59 94 59q37 0 49.5 -12.5t12.5 -37.5q-1 -19 -1 -29q0 -17 3 -124t3 -148q0 -40 33 -84t33 -61q0 -22 -30 -67t-30 -66z" />
    <glyph glyph-name="five" unicode="5" 
d="M253 -17q-56 0 -101 21.5t-66 51t-21 47.5q0 10 8.5 14.5t22.5 4.5q15 0 27.5 -8t23.5 -14t45 -28.5t55 -22.5q51 0 104.5 47.5t53.5 110.5q0 77 -35 123t-117 46q-56 0 -82 -9l-45 -21q-22 0 -36.5 13.5t-14.5 47.5q0 13 3 30l36 205q5 32 19 49.5t48 17.5q19 0 99 -9
t131 -9q36 0 36 -24q0 -19 -36 -19q-30 0 -100 -3t-82 -3q-26 0 -55.5 -37t-29.5 -90q0 -44 17 -62t44 -18q6 0 24.5 3.5t33 5.5t36.5 2q78 0 134 -44t56 -165q0 -144 -74.5 -199t-161.5 -55z" />
    <glyph glyph-name="six" unicode="6" 
d="M286 -26q-51 0 -101 17t-95.5 93t-45.5 235t50.5 246.5t112.5 117t110 29.5q46 0 89.5 -24t54.5 -46.5t11 -30.5q0 -11 -11.5 -16.5t-27.5 -5.5q-24 0 -38 8l-34 31q-25 11 -69 11q-59 0 -98 -67t-47 -120q-4 -25 34 -53t45 -38q-27 -34 -44 -63.5t-17 -93.5
q0 -74 40 -119t94 -45q53 0 90 51t37 119q0 59 -44 104.5t-83 58.5q-13 3 -26 3q-8 0 -11 3q6 20 20 40.5t53 20.5q60 0 120.5 -60.5t60.5 -181.5t-72.5 -172.5t-157.5 -51.5z" />
    <glyph glyph-name="seven" unicode="7" 
d="M282 117q-9 -56 -17.5 -85.5t-49.5 -29.5q-24 0 -30.5 7.5t-6.5 25.5q1 21 1 34q0 98 42 191.5t103 192t61 112.5q0 34 -15 44.5t-49 14t-114 14.5t-95 11q-13 0 -21 7t-8 16q0 16 29 20q21 0 86 -2.5t84 -2.5h12q15 0 30 0.5t40 4.5t55.5 10.5t42.5 6.5q21 0 32.5 -12
t11.5 -42q0 -31 -59 -131.5t-100.5 -187.5t-64.5 -219z" />
    <glyph glyph-name="eight" unicode="8" 
d="M269 -26q-102 0 -163 55t-61 139q0 62 33.5 121t33.5 78q0 8 -24 62.5t-24 101.5q0 72 61 129.5t156 57.5q78 0 139 -52.5t61 -134.5q0 -57 -18 -94l-42 -70q31 -46 54.5 -93t23.5 -100q0 -84 -64 -142t-166 -58zM287 633q-57 0 -95 -39t-38 -88q0 -43 40 -76t87 -33
q43 0 73 39t30 82q0 50 -23 82.5t-74 32.5zM281 319q-7 1 -12.5 1h-7.5q-54 0 -89.5 -40.5t-35.5 -99.5q0 -64 37 -105t96 -41q55 0 97 49.5t42 96.5q0 45 -36.5 92t-90.5 47z" />
    <glyph glyph-name="nine" unicode="9" 
d="M235 -28q-65 0 -106 33.5t-41 70.5q0 18 11 27t22 9q5 0 56 -31t82 -31q44 0 91.5 46.5t47.5 99.5q0 40 -18.5 58t-44.5 18q-13 0 -34 -10t-64 -10q-82 0 -145 56.5t-63 171.5q0 117 80.5 179.5t161.5 62.5q110 0 176 -97.5t66 -289.5q0 -201 -82 -282t-196 -81zM277 649
q-88 0 -116.5 -51t-28.5 -130q0 -66 33.5 -108.5t105.5 -42.5q38 0 76.5 44.5t38.5 118.5q0 169 -109 169z" />
    <glyph glyph-name="colon" unicode=":" horiz-adv-x="335" 
d="M192 493q19 0 31.5 -16.5t12.5 -36.5q0 -17 -9 -27.5t-29 -10.5q-23 0 -38.5 15.5t-15.5 35.5q0 17 12 28.5t36 11.5zM191 115q19 0 29.5 -11.5t10.5 -27.5q0 -18 -11 -32t-29 -14q-19 0 -31.5 14.5t-12.5 33.5q0 16 10.5 26.5t33.5 10.5z" />
    <glyph glyph-name="semicolon" unicode=";" horiz-adv-x="335" 
d="M188 494q20 0 30.5 -11.5t10.5 -27.5q0 -18 -11.5 -31.5t-29.5 -13.5t-30.5 14.5t-12.5 32.5q0 16 10.5 26.5t32.5 10.5zM212 -57l-30 48q-19 20 -27.5 31.5t-8.5 22.5q0 35 11 45t37 10q21 0 34 -23.5t13 -49.5q0 -45 -29 -84z" />
    <glyph glyph-name="less" unicode="&#x3c;" horiz-adv-x="585" 
d="M484 363q-15 -8 -137.5 -54t-122.5 -71q0 -33 85 -66.5l163 -62.5q55 -24 55 -50q0 -13 -15 -21t-40 -8q-8 0 -16.5 -0.5t-17.5 -0.5q-19 0 -34.5 6t-106.5 46l-219 79q-48 27 -48 72q0 48 51.5 68.5t121.5 42.5l124 38t86 31.5t50.5 19.5t35.5 4q46 0 46 -24
q0 -9 -21 -23.5t-40 -25.5z" />
    <glyph glyph-name="equal" unicode="=" horiz-adv-x="585" 
d="M461 322q-49 0 -138 -6t-189 -12h-21q-26 0 -35.5 7t-9.5 35q0 35 10.5 42t55.5 7q43 -5 144 -9t171 -4l46 -4q32 -5 32 -32q-5 -9 -23 -16.5t-43 -7.5zM485 86q-30 0 -162 -9t-159 -9q-12 0 -23 -0.5t-22 -0.5q-29 0 -43 8t-14 35q0 29 12 40t34 11q6 0 14 -1t12 -1
q19 0 169.5 -9.5t175.5 -9.5q48 0 48 -30q0 -25 -21 -25q-13 1 -21 1z" />
    <glyph glyph-name="greater" unicode="&#x3e;" horiz-adv-x="585" 
d="M260 81q-50 -24 -90.5 -35t-70.5 -11q-39 0 -49 10.5t-15 20t-5 11.5q0 1 50 17.5t107.5 44l108.5 53t55 40.5q4 26 -29 41l-84 32q-15 7 -106.5 27.5t-91.5 71.5q0 45 42 45q31 0 85 -20.5t152 -62.5l183 -76q30 -15 30 -70q0 -51 -90.5 -80.5z" />
    <glyph glyph-name="question" unicode="?" horiz-adv-x="610" 
d="M418 343q-42 -28 -60.5 -55t-36.5 -42q-17 7 -27 10.5t-10 21.5q0 7 3.5 20.5t25 50.5t54.5 70.5t51 54t18 57.5q0 55 -38.5 96.5t-88.5 36.5q-49 0 -91 -36l-84 -79q-21 0 -32 12t-11 33q0 44 54.5 84t157.5 40q104 0 173 -52.5t69 -141.5q0 -79 -21.5 -101t-105.5 -80z
M317 6q-32 0 -44.5 9t-12.5 25q0 8 1 16.5l2 16.5q0 32 15 46t39 14q15 0 38 -21.5t23 -38.5q0 -22 -17.5 -44.5t-43.5 -22.5z" />
    <glyph glyph-name="at" unicode="@" horiz-adv-x="975" 
d="M681 430q-7 -24 -16 -35.5t-16 -11.5q-11 0 -11 17q0 23 -13 61t-17 42q11 -6 16 -6q6 0 11 9t9 9l49 -6q6 -17 6 -21q0 -7 -8 -28.5t-10 -29.5zM493 672q-77 0 -77 10q0 4 19 7t52 3q30 0 45.5 -1t67 -10.5t107.5 -52.5t84.5 -99t44 -116t15.5 -110q0 -78 -33.5 -126.5
t-88.5 -48.5q-25 0 -32 14l-10 28q37 9 64 23.5t39.5 30.5t20 50t7.5 75q0 127 -72 225t-253 98zM251 587l24 37q10 9 23 14q29 7 44 10l-66 -55zM638 200l-42 6q-18 3 -18 15q0 7 15 35t20 38.5t15 34.5t13 24q4 0 7 -24t3 -80q-1 -9 -1 -17v-11q0 -18 4.5 -27t2.5 -18z
M390 285q0 -51 8 -63.5t47 -51.5q-15 -5 -32 -5q-34 0 -58.5 31.5t-24.5 112.5q0 95 53 139.5t98 52.5t61 8q-41 0 -96.5 -82.5t-55.5 -141.5zM294 -6q-59 49 -89 93t-38 107q31 -67 60 -100t88 -59.5t106.5 -39t92.5 -12.5q50 0 84 13.5t47 17.5t19 4q-2 -6 -3 -12
q-15 -12 -41 -23.5t-72.5 -19t-98.5 -7.5t-91 8.5t-64 29.5z" />
    <glyph glyph-name="A" unicode="A" horiz-adv-x="720" 
d="M384 153q-131 0 -152.5 -7.5t-45 -49.5t-39.5 -65.5t-36.5 -26.5t-28.5 -3q-36 0 -36 36q0 15 5.5 32t22.5 50.5t33 74l90 237.5l58 191q40 106 105 106q54 0 88.5 -46t61 -129.5l46 -149t69 -191.5t49.5 -168t-36 -42q-38 0 -95.5 75.5t-158.5 75.5zM378 534
q-48 0 -75.5 -66t-27.5 -128q0 -53 18.5 -71.5t84.5 -18.5q49 0 70.5 13.5t21.5 44.5q0 14 -4.5 34t-14.5 47q-13 63 -25.5 104t-47.5 41z" />
    <glyph glyph-name="B" unicode="B" horiz-adv-x="720" 
d="M406 -11q-51 0 -73 6.5t-36 6.5q-21 0 -63 -3.5t-58 -3.5q-44 0 -70.5 18.5t-26.5 78.5q0 55 4 162t9 225t5 140q0 58 31 83.5t121 25.5q24 0 102 -9.5t127 -9.5q81 0 128.5 -45.5t47.5 -123.5q0 -59 -30.5 -94t-30.5 -57q0 -9 36.5 -65t36.5 -141q0 -96 -87.5 -145
t-172.5 -49zM418 631q-31 0 -77.5 9t-49.5 9q-55 0 -70 -27t-15 -88v-30q0 -66 56 -72.5t126 -6.5q79 0 112 18.5t33 96.5q0 45 -31 65.5t-84 25.5zM454 334q-21 3 -37 3q-2 0 -61.5 -7.5t-100.5 -7.5q-31 0 -42 -19t-11 -55q0 -14 2 -48t2 -35q0 -46 63 -68.5t149 -22.5
q71 0 111 46.5t40 98.5q0 45 -31.5 75.5t-83.5 39.5z" />
    <glyph glyph-name="C" unicode="C" horiz-adv-x="720" 
d="M397 -11q-149 0 -250 87t-101 276q0 186 104 287t241 101q54 0 118.5 -27.5t114 -72.5t49.5 -87q0 -25 -28 -25q-71 0 -128.5 63.5t-119.5 63.5q-98 0 -161 -79.5t-63 -217.5q0 -146 53 -218t177 -72q60 0 105 43l50.5 64t25.5 21t31 8q42 0 42 -51q0 -62 -85 -113
t-175 -51z" />
    <glyph glyph-name="D" unicode="D" horiz-adv-x="720" 
d="M385 4q-79 0 -114 -1t-64 -2q-17 0 -54.5 4t-63 30.5t-25.5 89.5q0 40 4 172t4 196q0 31 -1 69.5t-6.5 63t-5.5 37.5q0 35 22 55t46 23t34.5 3h17.5q29 0 101 -4t99 -4q49 0 119 -30t126.5 -109.5t56.5 -216.5q0 -212 -77.5 -294t-218.5 -82zM312 652q-69 0 -90 -17
t-31 -67.5t-10 -146.5q0 -61 3.5 -112.5t12.5 -115t35.5 -82t70.5 -18.5q10 0 29.5 1t28.5 1q72 0 138.5 59.5t66.5 206.5q0 162 -60.5 226.5t-193.5 64.5z" />
    <glyph glyph-name="E" unicode="E" horiz-adv-x="665" 
d="M481 -12q-74 0 -133 2t-139 4q-97 0 -97 73q0 1 3 93t3 161q0 67 -4 133t-8 139q0 83 20 111.5t58 28.5q54 0 148.5 -2.5l166.5 -4.5h23q38 0 50 -10t12 -32q0 -29 -13.5 -35.5t-59.5 -6.5h-42q-21 0 -65.5 3.5t-58.5 3.5q-61 0 -95.5 -23t-34.5 -87q0 -66 49 -88.5
t124 -22.5q14 0 31.5 0.5t37.5 1.5h27q35 0 46.5 -6.5t11.5 -31.5q0 -10 -1.5 -24.5t-15.5 -23.5t-35 -9q-10 0 -28 2t-24 2q-11 0 -42 3t-48 3q-56 0 -88.5 -28.5t-32.5 -110.5q0 -73 49 -98t123 -25q16 0 42 1t34 1q13 0 32.5 1t43.5 3q31 0 47 -10.5t16 -41.5t-24 -40
t-72 -9h-37z" />
    <glyph glyph-name="F" unicode="F" horiz-adv-x="610" 
d="M455 642q-32 0 -53.5 1t-39.5 2q-64 0 -100.5 -23.5t-36.5 -94.5q0 -68 32 -92t87 -24q17 0 51.5 3.5t47.5 3.5q41 0 63 -3.5t22 -41.5q0 -10 -1.5 -22.5t-16 -20.5t-37.5 -8q-17 0 -39 3.5l-46 7.5h-30q-68 0 -106.5 -23t-38.5 -104q0 -24 1 -61t1 -50q0 -57 -11.5 -79
t-51.5 -22q-35 0 -44.5 11.5t-9.5 41.5v20q0 1 3 93t3 161q0 67 -4 133t-8 139q0 67 10 100t53 33h9q29 -3 76.5 -4t54.5 -1q60 0 107 1.5t83 3.5h23q38 0 50 -10t12 -32q0 -28 -13.5 -35t-59.5 -7h-42z" />
    <glyph glyph-name="G" unicode="G" horiz-adv-x="780" 
d="M713 85q2 -18 2 -26q0 -25 -9 -38.5t-29 -13.5q-18 0 -38 27t-35 27q-59 -30 -124 -54.5t-130 -24.5q-112 0 -210 107t-98 262q0 177 99 282.5t282 105.5q85 0 159 -41t80 -79t6 -48q0 -12 -7 -16t-26 -4q-41 0 -70 38.5t-78 57.5t-106 19q-75 0 -146.5 -74t-71.5 -235
q0 -160 75.5 -225t160.5 -65q61 0 130 49.5t69 101.5q0 37 -15.5 49.5t-43.5 12.5q-21 -1 -31 -1q-35 0 -48 8t-13 34q0 55 85 55h133q30 0 42 -25.5t12 -71.5q0 -21 -4 -79t-4 -83v-21q2 -8 2 -11z" />
    <glyph glyph-name="H" unicode="H" horiz-adv-x="720" 
d="M598 13q-43 0 -54.5 40t-11.5 159q0 99 -62 119t-190 20q-55 0 -74.5 -42.5t-19.5 -113.5q0 -36 2.5 -67.5t4.5 -54.5q0 -35 -10 -50.5t-45 -15.5q-43 0 -54.5 61.5t-11.5 149.5q0 19 9 73t9 97t-9 111.5t-9 105.5q0 76 9 98.5t51 22.5q32 0 46.5 -35t14.5 -164
q0 -37 29 -67t62 -30h145q40 0 74.5 35.5t34.5 109.5q0 81 12 104t54 23q29 0 39 -31t10 -84l6 -472q0 -68 -8.5 -85t-52.5 -17z" />
    <glyph glyph-name="I" unicode="I" horiz-adv-x="275" 
d="M130 0q-20 0 -37 17t-17 50v12q4 43 4 101q0 51 -3.5 114.5t-6.5 129.5q0 24 4 71.5t14 139.5q1 35 1.5 57t33.5 22h13q50 0 56 -35l5.5 -61t2.5 -137q0 -100 -1 -186t-2 -162q1 -6 1 -12.5v-13.5q0 -45 -16 -76t-52 -31z" />
    <glyph glyph-name="J" unicode="J" 
d="M475 223q0 -74 -53 -150.5t-165 -76.5q-113 0 -171 60.5t-58 121.5q0 44 7.5 58.5t35.5 14.5q11 0 17 -1q15 0 26 -26l24.5 -57.5t46 -57.5t66.5 -22q63 0 83 34.5t20 110.5q0 131 7 202l18 121q0 10 -2 26.5t-13 41.5t-11 36q0 6 3.5 23.5t14.5 34.5t44 17t49.5 -27
t16.5 -64q0 -27 -4 -164.5t-4 -191.5q0 -17 1 -39t1 -25z" />
    <glyph glyph-name="K" unicode="K" horiz-adv-x="720" 
d="M619 4q-29 0 -40 8t-31.5 33t-98.5 130t-98.5 130.5t-41.5 25.5q-13 0 -34 -14.5t-37.5 -27t-24.5 -46.5t-8 -80q0 -25 1 -44t2 -36q0 -39 -11 -56t-50 -17q-36 0 -45 17t-13.5 51t-4.5 72q0 59 1 121l2 120q0 131 -2.5 168t-3.5 62q0 53 12 78t60 25q29 0 40.5 -21.5
t11.5 -56.5q0 -21 -4 -45.5t-6 -39t-2 -28.5q0 -18 5 -29t19.5 -25.5t23 -21t16.5 -6.5q13 0 40.5 24t98.5 93.5l105 103.5t44.5 43t43.5 9q19 0 28.5 -8.5t9.5 -22.5q0 -16 -14.5 -35.5t-42.5 -45.5l-80.5 -74.5t-61 -66.5t-8.5 -35q0 -20 6.5 -36t24 -46.5t88 -122
t104 -129t33.5 -59.5q0 -18 -17 -28.5t-40 -10.5z" />
    <glyph glyph-name="L" unicode="L" horiz-adv-x="610" 
d="M470 9q-47 5 -117 8.5t-179 3.5q-50 0 -64.5 27t-14.5 82v502q0 42 16.5 67.5t56.5 29.5q36 0 45 -21t9 -64q-5 -70 -8.5 -126.5t-3.5 -96.5q0 -54 3 -139t3 -103q0 -36 26.5 -60.5t64.5 -24.5q14 0 58.5 2t55.5 2q28 0 51 -2t43.5 -8t43.5 -12q20 -8 20 -31
q0 -14 -29.5 -25t-79.5 -11z" />
    <glyph glyph-name="M" unicode="M" horiz-adv-x="835" 
d="M726 0q-54 0 -54 109q0 38 6 91.5t6 59.5q0 44 -3 121.5t-3 90.5l-4 53q-5 32 -39 32q-23 0 -34 -8t-50 -59q7 34 10 59t10 79t23.5 73t77.5 19q57 0 74 -27t17 -136q0 -61 6 -230t6 -212q0 -71 -8.5 -93t-40.5 -22zM508 139q-26 -86 -35.5 -109.5t-36.5 -23.5
q-65 0 -90.5 117l-41.5 190t-34.5 123.5t-34.5 66.5t-27 16q-13 0 -22.5 -16t-9.5 -43v-345q0 -57 -9.5 -83t-39.5 -26q-31 0 -42.5 25t-11.5 90v321q0 25 6 53.5t6 43.5q0 27 -9.5 52.5t-9.5 37.5q0 8 3 27.5t37.5 44.5t87.5 25q59 0 72 -27t35.5 -128.5l55.5 -255.5
q17 -56 41 -85.5t44 -29.5q18 0 39.5 62.5t40.5 129.5t19 69q0 -11 -1 -45.5t-1 -58.5q0 -35 -15.5 -109t-15.5 -109z" />
    <glyph glyph-name="N" unicode="N" horiz-adv-x="720" 
d="M591 6q-49 0 -103.5 57.5t-113.5 189t-81.5 175t-58.5 38.5q-33 -5 -43.5 -41t-10.5 -165q0 -125 -4 -189.5t-45 -64.5q-31 0 -44 14t-13 51q0 18 3.5 41t7.5 61t4 63q0 49 -6 84l-12 73q0 28 6 67.5t6 53.5q0 8 -5.5 53t-5.5 59q0 42 15 65t56 23q58 0 72 -9t35.5 -49.5
l84.5 -163.5t106.5 -180t79.5 -57q34 0 34 66v321q0 37 10.5 51.5t37.5 14.5q39 0 50 -54t11 -200q0 -88 -4 -114q-8 -28 -15 -55q0 -38 9.5 -81.5t9.5 -76.5q0 -57 -17 -89t-56 -32z" />
    <glyph glyph-name="O" unicode="O" horiz-adv-x="780" 
d="M383 -16q-169 0 -260 104t-91 259q0 150 91.5 265.5t271.5 115.5q139 0 242 -94t103 -317q0 -333 -357 -333zM358 638h-15q-92 0 -150 -85.5t-58 -187.5q0 -161 78 -243.5t170 -82.5q86 0 164 87.5t78 226.5q0 137 -83.5 211t-183.5 74z" />
    <glyph glyph-name="P" unicode="P" horiz-adv-x="665" 
d="M431 286q-108 0 -166 -22t-58 -118q0 -74 -4.5 -109.5t-49.5 -35.5h-13q-26 0 -37 12.5t-11 60.5q0 36 -6 115t-6 133q0 51 9 111.5t9 75.5q0 29 -6.5 56.5t-6.5 32.5q0 12 3 43.5t19 55.5t70 24h242q71 0 138.5 -45.5t67.5 -133.5q0 -13 -1 -20q0 -122 -39 -179
t-154 -57zM334 630q-62 0 -94.5 -26t-32.5 -58v-97q0 -53 26 -69t95 -16q68 0 124.5 37t56.5 96q0 54 -47.5 93.5t-127.5 39.5z" />
    <glyph glyph-name="Q" unicode="Q" horiz-adv-x="780" 
d="M692 111q2 -26 9.5 -58t7.5 -39q0 -16 -8.5 -22.5t-19.5 -6.5q-4 0 -41.5 11.5t-56.5 11.5q-26 0 -86 -15t-96 -15q-160 0 -255.5 97.5t-95.5 247.5q0 116 27 207t108 150.5t235 59.5q123 0 221.5 -88.5t98.5 -268.5q0 -79 -24 -168t-24 -104zM413 662q-136 0 -192 -88
t-56 -221q0 -111 71.5 -197.5t152.5 -86.5q36 0 47 3t33 18t22 30q-2 15 -2 24q0 14 11.5 31.5t44.5 25.5t38 13q14 19 31 69t17 82q0 133 -68.5 215t-149.5 82z" />
    <glyph glyph-name="R" unicode="R" horiz-adv-x="720" 
d="M583 345q0 -33 36 -71.5t36 -176.5q0 -52 -8.5 -68.5t-39.5 -16.5q-32 0 -46.5 33.5t-23 98t-51 118t-133.5 53.5q-93 0 -131.5 -53t-38.5 -141q0 -49 -10.5 -76t-43.5 -27q-18 -5 -31.5 13t-18.5 64.5t-8 178t-3 313.5q0 13 -0.5 26t-0.5 26q0 41 17.5 61t74.5 20
q72 0 172 3t137 3q71 0 138 -55.5t67 -143.5q0 -66 -45 -106t-45 -76zM443 635q-13 0 -66 3.5t-91 3.5q-55 0 -76 -23.5t-21 -61.5v-109q0 -38 36 -58.5t122 -20.5q90 0 150.5 38.5t60.5 94.5q0 53 -36 93t-79 40z" />
    <glyph glyph-name="S" unicode="S" horiz-adv-x="665" 
d="M328 -18q-147 0 -199 35.5t-64 68t-12 41.5q0 18 12.5 30.5t31.5 12.5q16 0 34.5 -8.5t56 -43t67 -46t73.5 -11.5q54 0 115 31.5t61 95.5q0 69 -83 91.5l-153 41.5q-117 37 -164.5 76t-47.5 105q0 92 51.5 158t196.5 66q86 0 154.5 -23t87 -60.5t18.5 -53.5
q0 -27 -27 -27q-29 0 -68.5 36t-74.5 46t-90 10q-81 0 -119 -30.5t-38 -78.5q0 -71 62 -95t173.5 -56t174 -64.5t62.5 -111.5q0 -103 -67.5 -169.5t-223.5 -66.5z" />
    <glyph glyph-name="T" unicode="T" horiz-adv-x="610" 
d="M480 637q-53 0 -81 -26t-28 -83q0 -36 -6 -94t-6 -112q0 -52 6.5 -122.5t6.5 -84.5q0 -16 -4 -51t-19 -52t-45 -17q-35 0 -44.5 31t-9.5 84q0 22 6 94t6 112t-6 118.5t-6 93.5q0 52 -23.5 80.5t-61.5 28.5q-13 0 -24 -0.5t-19 -0.5q-40 0 -62 6t-22 25v15q0 22 9.5 30.5
t45.5 8.5q25 0 85 -6t114 -6q49 0 117 9t89 9q56 0 70.5 -11.5t14.5 -42.5q0 -24 -22.5 -30t-80.5 -6z" />
    <glyph glyph-name="U" unicode="U" horiz-adv-x="720" 
d="M642 211q-7 -83 -16 -117.5t-70 -73.5t-199 -39q-136 0 -198.5 75.5t-74 155.5t-11.5 168v242q0 56 20.5 79.5t52.5 23.5q25 0 45 -35.5t15 -61.5q-12 -60 -12 -248q0 -149 25.5 -234.5t143.5 -85.5q108 0 145.5 68t37.5 183q0 28 -3.5 85.5t-3.5 80.5q0 21 -0.5 42
t-0.5 41q0 79 13 119t54 40q33 0 44 -49t11 -126q0 -64 -5 -157t-13 -176z" />
    <glyph glyph-name="V" unicode="V" horiz-adv-x="665" 
d="M535 434l-109 -357q-19 -29 -43 -45t-54 -16q-27 0 -49 16t-36 45q-16 38 -55.5 168.5t-42 138t-49.5 124.5t-47 167q0 54 49 49q25 0 44 -38t38.5 -110l37 -134t45.5 -149.5t65 -82.5q32 5 67 92t48 132l43 197q28 93 90 93q22 0 32 -10t10 -29q0 -31 -36.5 -122
t-47.5 -129z" />
    <glyph glyph-name="W" unicode="W" horiz-adv-x="945" 
d="M758 120q-15 -64 -34 -92.5t-57 -28.5q-40 0 -65.5 43t-25.5 108q0 90 -32 229.5t-77 139.5q-29 0 -50.5 -68t-35 -152.5l-25 -157t-24.5 -101.5t-64 -29q-50 0 -66 53q-13 75 -45.5 189l-59 203.5t-40 126.5t-19.5 56t-6 37q0 23 12 36t42 13q41 0 51 -22t15.5 -76
t25.5 -152t35 -149q12 -31 25.5 -51t29.5 -16q17 4 39.5 38.5t31 96t30 196.5t92.5 135q59 0 85.5 -124.5t47.5 -232.5q16 -52 35.5 -87.5t37.5 -39.5q12 0 37 56.5t35 92.5l32 110t29.5 121t16 72.5t50.5 25.5q48 0 48 -30q0 -14 -19.5 -68t-27.5 -85.5l-31 -117.5
l-48.5 -181t-30.5 -117z" />
    <glyph glyph-name="X" unicode="X" horiz-adv-x="665" 
d="M433 103q-33 57 -47 77t-44 20q-43 0 -84 -74.5t-71.5 -103t-65.5 -28.5h-9q-38 4 -38 34q0 31 59 116.5t88.5 133t29.5 85.5q0 45 -19.5 95t-54.5 95.5t-56.5 77.5t-21.5 56q0 33 50 33q37 0 52 -24l44 -85q28 -43 48.5 -69.5t54.5 -20.5q19 0 41.5 19.5t31.5 46.5
l42 101q24 38 79 38q43 0 43 -27q0 -21 -12.5 -42.5t-60 -96t-66.5 -111.5t-19 -74v-12q0 -22 20 -52l58 -90.5t60.5 -110t22.5 -75.5q0 -29 -28 -29q-61 0 -81 25t-46 72z" />
    <glyph glyph-name="Y" unicode="Y" horiz-adv-x="665" 
d="M515 509q-43 -78 -63.5 -119t-36 -97.5t-15.5 -122.5q0 -101 -15 -129t-51 -28q-32 0 -43.5 28t-11.5 105q0 215 -76.5 310.5t-106 146.5t-29.5 85q0 38 43 38q37 0 65 -53l53 -116.5t54 -94t58 -38.5q26 4 54 52l37 63l56 122q30 54 70 54q8 0 26.5 -3.5t18.5 -28.5
q0 -27 -32 -81z" />
    <glyph glyph-name="Z" unicode="Z" horiz-adv-x="610" 
d="M369 359q-72 -78 -113.5 -132t-37.5 -79q5 -30 41.5 -45.5t121.5 -15.5q93 0 128.5 -3t35.5 -39q0 -28 -45 -38.5t-107 -10.5q-13 0 -52.5 6.5t-55.5 6.5q-31 0 -81 -6.5t-65 -6.5q-65 0 -90 13t-25 72q0 52 72 139.5l140 169.5q77 104 97.5 137t23.5 56q5 24 -14.5 40
t-60.5 21t-76.5 8.5t-78.5 3.5q-33 0 -51.5 11t-18.5 26q0 29 58 29q44 4 85.5 5t88.5 1h20q48 0 103.5 -3t99 -9.5t43.5 -49.5v-16q-3 -9 -8.5 -28t-67 -114.5t-110.5 -148.5z" />
    <glyph glyph-name="bracketleft" unicode="[" horiz-adv-x="335" 
d="M173 545q0 -72 1 -174.5t3 -253.5t2 -165q0 -84 28.5 -108t38.5 -43q-19 -14 -35 -19.5t-44 -5.5q-35 0 -66 43t-31 115q0 65 4 203.5t9 294.5t5 191q0 79 11.5 97t55.5 18q43 0 73 -9.5t30 -26.5q-85 -56 -85 -157z" />
    <glyph glyph-name="backslash" unicode="\" horiz-adv-x="280" 
d="M123 350q-112 326 -112 342q0 19 14 23t16 4q15 0 44 -109t104 -338.5t75 -250.5q0 -19 -17 -19q-20 0 -47.5 102.5t-76.5 245.5z" />
    <glyph glyph-name="bracketright" unicode="]" horiz-adv-x="335" 
d="M190 -225q-33 0 -61.5 8t-47.5 23q-8 11 -8 19q0 2 37 35t37 97l-6 623q0 50 -14.5 74t-57.5 53q0 14 18.5 16.5t36.5 2.5q11 0 22.5 -0.5t24.5 -0.5q48 0 63.5 -16.5t15.5 -92.5l6 -677q0 -78 -17 -121t-49 -43z" />
    <glyph glyph-name="asciicircum" unicode="^" horiz-adv-x="584" 
d="M491 331q7 -13 -6 -25t-32 -12q-13 0 -24 6.5t-69 120.5t-71 114q-17 0 -77 -111.5t-73 -120t-25 -8.5q-22 0 -22 19q0 6 58 138.5l84.5 192.5t57.5 60q33 0 78.5 -115.5t120.5 -258.5z" />
    <glyph glyph-name="underscore" unicode="_" horiz-adv-x="556" 
d="M615 -156q0 -20 -9 -29t-28 -15h-600q-13 1 -25.5 5.5t-12.5 26.5t12.5 28.5t25.5 9.5h600q12 -3 24.5 -8t12.5 -18z" />
    <glyph glyph-name="grave" unicode="`" horiz-adv-x="333" 
d="M71 675q-28 19 -28 36q0 12 11 20t26 10q12 2 31.5 -4.5t32.5 -21.5l45.5 -71t19.5 -39q0 -11 -24 -11q-20 0 -58 34.5t-56 46.5z" />
    <glyph glyph-name="a" unicode="a" 
d="M252 491q-40 0 -80.5 -35t-58.5 -32q-37 4 -37 22q0 16 32 38.5t81 38.5t112 16q119 0 153 -86.5t34 -258.5q0 -125 -11.5 -147t-48.5 -28q-13 -2 -43.5 18.5t-49.5 20.5q-10 0 -22 -3q-50 -30 -84 -45.5t-68 -15.5h-12q-48 0 -84.5 30t-36.5 85q0 76 38 118t95 52
q13 4 24 4q13 0 13 -7q0 -6 -19 -21.5t-30.5 -41.5t-11.5 -55q0 -36 40 -69t83 -33q17 0 45.5 11t51 46t22.5 75q0 48 -8.5 63t-29 29t-31.5 14q-10 -1 -12 -1q1 2 3 4l43 42q17 20 17 43q0 47 -28 78t-81 31z" />
    <glyph glyph-name="b" unicode="b" horiz-adv-x="610" 
d="M358 -14q-47 0 -80.5 27.5t-52.5 27.5q-26 0 -48.5 -21.5t-42.5 -21.5q-29 0 -48 23.5t-19 59.5q0 9 2 26t2 136q0 109 -1 200.5t-2 171.5q0 49 11 73t37 24q29 0 38.5 -21t9.5 -63q0 -70 17.5 -92.5t49.5 -22.5q1 0 55 18t90 18q73 0 136.5 -70.5t63.5 -213.5t-69 -211
t-149 -68zM310 488q-64 0 -99 -58t-35 -141q0 -94 27.5 -159t93.5 -65q72 0 118 62.5t46 155.5q0 89 -43.5 147t-107.5 58z" />
    <glyph glyph-name="c" unicode="c" horiz-adv-x="556" 
d="M471 394q-11 -3 -19 -3q-26 0 -59.5 43.5t-91.5 43.5q-78 0 -120.5 -74t-42.5 -155q0 -71 45 -135.5t106 -64.5q45 0 89.5 49.5t70.5 49.5q4 0 16 -2q18 -5 18 -30q0 -23 -18 -55q-22 -33 -59.5 -53t-104.5 -20q-141 0 -197.5 63t-56.5 185q0 138 51.5 220.5t196.5 82.5
q76 0 121.5 -23.5t61 -51.5t15.5 -45q0 -21 -22 -25z" />
    <glyph glyph-name="d" unicode="d" horiz-adv-x="610" 
d="M529 72q0 -34 -10 -47t-45 -13q-21 0 -44 12t-59 12q-40 0 -61.5 -18.5t-71.5 -18.5q-85 0 -145 63.5t-60 209.5q0 140 76.5 206t152.5 66q39 0 73.5 -21t54.5 -21q37 0 42.5 44.5t5.5 88.5q0 43 16 63.5t44 20.5t38.5 -16.5t10.5 -61.5q0 -46 -6 -214t-12 -355zM311 477
q-7 1 -21 1q-75 0 -106.5 -53.5t-37.5 -103.5t-6 -55.5v-7.5q0 -74 52.5 -136t106.5 -62q55 0 100 51t45 118q0 84 -35.5 166t-97.5 82z" />
    <glyph glyph-name="e" unicode="e" 
d="M458 254q-27 0 -81.5 6t-69.5 6q-97 0 -133 -22t-36 -63t43 -84t102 -43q5 -1 15 -1q23 0 40 12q19 17 29.5 24.5t25 13t29.5 5.5q17 0 28.5 -6t11.5 -17q0 -9 -25.5 -34.5t-52.5 -41.5t-119 -16q-110 0 -176 67t-66 187q0 103 55.5 197t198.5 94q106 0 174 -60.5
t68 -157.5q0 -37 -12.5 -51.5t-48.5 -14.5zM259 496q-56 0 -85.5 -25.5t-29.5 -62.5v-9q5 -39 49 -68t114 -29q54 0 81.5 23t27.5 50q0 28 -50.5 74.5t-106.5 46.5z" />
    <glyph glyph-name="f" unicode="f" horiz-adv-x="335" 
d="M224 581q0 -13 18.5 -35.5t18.5 -48.5q0 -11 -33.5 -54t-33.5 -134q0 -43 6 -91t6 -121q0 -44 -11 -67t-37 -23q-30 0 -45.5 18.5t-15.5 65.5q0 56 3 160.5t3 111.5q0 42 -24 80.5t-24 53.5q0 35 24 54.5t31 69t43.5 77.5t70.5 28q30 0 42.5 -8t12.5 -34
q0 -15 -27.5 -40.5t-27.5 -62.5z" />
    <glyph glyph-name="g" unicode="g" horiz-adv-x="610" 
d="M456 -155q-35 -25 -78.5 -39.5t-102.5 -14.5q-66 0 -107 9t-67 26.5t-26 40.5q0 32 36 32q33 0 55.5 -6t48.5 -21l47 -27q14 -6 43 -6q45 0 83 44t38 95q0 48 -12.5 69.5t-36.5 21.5q-12 0 -64 -33.5t-81 -33.5q-63 0 -128 69.5t-65 196.5q0 136 53 204.5t140 68.5
q53 0 88 -18.5t63 -18.5q36 0 52.5 15.5t38.5 15.5q37 0 49 -17t12 -68v-442q0 -40 -18.5 -85t-60.5 -78zM281 498q-63 0 -107.5 -71t-44.5 -165q0 -83 41 -129t117 -46q68 0 106.5 59t38.5 141q0 79 -45 145t-106 66z" />
    <glyph glyph-name="h" unicode="h" horiz-adv-x="610" 
d="M532 127q0 -54 -9 -84.5t-45 -30.5q-26 0 -36.5 42.5t-10.5 107.5q0 23 1 39.5t3 38.5t2 38q0 78 -26.5 136t-96.5 58q-80 0 -112.5 -78t-32.5 -164q0 -35 3 -70t3 -57q0 -37 -15.5 -64t-38.5 -27q-25 0 -37 23t-12 92q0 48 9 129t9 113q0 42 -9 127t-9 109q0 59 8.5 87
t46.5 28q37 0 45.5 -21t8.5 -76q0 -79 7.5 -103t53.5 -24q24 0 57.5 30.5t75.5 30.5q60 0 111.5 -61.5t51.5 -138.5q0 -65 -2 -114.5t-4 -115.5z" />
    <glyph glyph-name="i" unicode="i" horiz-adv-x="280" 
d="M137 711q14 0 21.5 -9.5t7.5 -24.5q0 -16 -7.5 -27t-21.5 -11t-22.5 12t-8.5 28q0 32 31 32zM137 3q-26 0 -37 15.5t-11 51.5q0 4 6 61t6 96q0 44 -9 113t-9 99q0 32 15.5 55.5t38.5 23.5q24 0 39 -22t15 -69v-339q0 -85 -54 -85z" />
    <glyph glyph-name="j" unicode="j" horiz-adv-x="280" 
d="M142 706q13 0 19.5 -7.5t6.5 -19.5q0 -14 -8 -26.5t-18 -12.5t-19 13t-9 27q0 26 28 26zM143 -170q-31 -37 -71 -37q-19 0 -25 13q-9 15 -9 28q0 12 7.5 25t24.5 36.5t17 71.5q0 20 -5 86.5t-5 115.5q0 81 3.5 143.5t8.5 128.5q0 37 10 64t38 27q30 0 39.5 -22t9.5 -61
v-26v-424q0 -61 -11.5 -103t-31.5 -66z" />
    <glyph glyph-name="k" unicode="k" 
d="M383 49l-67 114q-37 55 -72 55q-28 0 -46.5 -24t-24 -83t-16 -76t-34.5 -17q-32 0 -40 21.5t-8 69.5v496q0 55 4 82.5t44 32.5q34 0 44.5 -25.5t10.5 -83.5q0 -19 -0.5 -40.5t-0.5 -44.5q0 -66 7 -105.5t30 -39.5q32 0 52 15l50 45.5t47 47.5t42 30q8 0 21.5 -5.5
t13.5 -18.5q0 -11 -9.5 -25.5t-22.5 -27.5q-38 -31 -49 -43.5t-11 -38.5t14.5 -57.5t66 -124t51.5 -123.5q0 -21 -11 -37t-28 -16q-14 0 -28.5 11t-29.5 36z" />
    <glyph glyph-name="l" unicode="l" horiz-adv-x="280" 
d="M140 8q-34 0 -45 30t-11 90v36.5t1 37.5q6 74 6 116t-3 104t-3 82v57q0 84 8.5 119.5t40.5 35.5q29 0 41 -19.5t12 -53.5q0 -22 -6 -70t-5 -56q9 -63 10.5 -175.5t1.5 -157.5v-38q0 -86 -11.5 -112t-36.5 -26z" />
    <glyph glyph-name="m" unicode="m" horiz-adv-x="890" 
d="M686 530q63 0 107 -47t44 -111q0 -47 -6 -146.5t-6 -107.5q0 -58 -9 -80.5t-39 -22.5q-33 0 -40.5 43t-7.5 66q0 9 4 54t4 77q0 34 -1.5 48t-10 54.5t-37 76t-86.5 35.5q-21 0 -21 13q0 6 8.5 12.5t24.5 14.5t34.5 14.5t37.5 6.5zM505 336v-181q0 -59 -11 -105.5
t-44 -46.5t-43.5 28.5t-10.5 86.5v212q0 53 -25.5 96t-83.5 43q-57 0 -83 -40t-26 -87q0 -50 -4.5 -120t-11 -118t-9.5 -74q-7 -21 -35 -21q-24 0 -30 15t-12 49.5t-7 89.5t-1 81v85t1 74q0 66 12.5 93.5t48.5 27.5q25 0 58.5 -24.5t50.5 -24.5q10 0 41.5 33.5t91.5 33.5
q58 0 91.5 -36.5t47.5 -36.5q7 0 18.5 -1t11.5 -12q0 -6 -6 -17q-16 -20 -23 -49t-7 -54z" />
    <glyph glyph-name="n" unicode="n" horiz-adv-x="610" 
d="M176 324q0 -9 -6 -116t-6 -132q0 -24 -12 -48.5t-25 -24.5q-20 0 -37 21t-17 52q0 26 3 79t3 60v30v25q0 97 -3.5 121.5t-3.5 38.5q0 41 18.5 64.5t60.5 23.5q24 0 44.5 -20.5t28.5 -22.5q0 -1 4.5 -14t1.5 -16l-38 -67.5t-16 -53.5zM393 536q72 0 109 -43t37 -121
q0 -56 -3 -148t-3 -118q0 -48 -10.5 -69.5t-38.5 -21.5q-26 0 -37 20t-11 65v254q0 36 -41 73.5t-86 41.5q-5 8 -12 14t0 10l39 33q15 10 57 10z" />
    <glyph glyph-name="o" unicode="o" horiz-adv-x="610" 
d="M338 -17q-173 0 -243.5 87t-70.5 191q0 96 66.5 184.5t193.5 88.5q119 0 204.5 -65t85.5 -189q0 -122 -80 -209.5t-156 -87.5zM302 497q-70 0 -126 -65t-56 -158q0 -94 52.5 -165t117.5 -71q83 0 129 66t46 164q0 92 -47.5 160.5t-115.5 68.5z" />
    <glyph glyph-name="p" unicode="p" horiz-adv-x="610" 
d="M381 9q-59 0 -91 27t-60 27q-34 0 -51 -33t-17 -79q0 -14 1 -23.5t1.5 -19t0.5 -16.5q0 -47 -11.5 -77t-38.5 -30q-34 0 -44.5 27.5t-10.5 93.5v496q0 99 15 119t58 20q26 0 55 -18t42 -18q10 0 24 6q37 23 57 33t76 10q71 0 129 -76.5t58 -184.5q0 -112 -56.5 -198
t-136.5 -86zM266 499q-44 -13 -76.5 -88.5t-32.5 -147.5q0 -70 32.5 -128t62 -66.5t38.5 -8.5q58 0 117 63.5t59 151.5q0 96 -56 161.5t-119 65.5q-13 0 -25 -3z" />
    <glyph glyph-name="q" unicode="q" horiz-adv-x="610" 
d="M489 -216q-36 0 -48 23t-12 92q0 67 -14 94t-47 27q-20 0 -73 -15t-60 -15q-73 0 -142.5 74.5t-69.5 173.5q0 127 59.5 212t176.5 85q44 0 74.5 -24.5t46.5 -24.5q20 0 49 15t54 15q35 0 45 -25t10 -102v-459q0 -76 -8 -111t-41 -35zM296 480q-82 0 -123 -66.5
t-41 -169.5q0 -88 53.5 -140.5t116.5 -52.5q50 0 91.5 71.5t41.5 139.5q0 76 -38 147t-101 71z" />
    <glyph glyph-name="r" unicode="r" horiz-adv-x="390" 
d="M196 291q-6 -55 -9 -98t-3 -95q0 -40 -8.5 -62.5t-33.5 -22.5q-28 0 -42 12.5t-14 48.5q0 11 1 18v145q2 27 7 83t5 74v37q0 44 6.5 64t30.5 20q26 0 37 -12t23 -12q18 0 49 13t45 16.5t22 3.5q19 0 30.5 -7t11.5 -19q0 -13 -42.5 -38t-73 -54t-42.5 -115z" />
    <glyph glyph-name="s" unicode="s" 
d="M296 -11q-42 0 -85.5 10t-84.5 32q-27 11 -33.5 21.5t-20.5 45.5q-4 16 5.5 25t27.5 9q16 0 32 -6.5t36 -26t44 -31.5t73 -12q52 0 80 23.5t28 60.5q0 46 -41.5 66t-116 30t-127.5 56t-53 96q0 57 49.5 101t143.5 44q91 0 151.5 -17.5t60.5 -66.5q0 -21 -5.5 -30
t-15.5 -9t-22 8t-31 26.5t-34 29.5t-73 11q-39 0 -74 -28.5t-35 -68.5q0 -39 43.5 -58.5t119.5 -19.5q163 0 163 -182q0 -81 -60.5 -110t-144.5 -29z" />
    <glyph glyph-name="t" unicode="t" horiz-adv-x="335" 
d="M197 -24q-28 0 -62.5 33.5t-34.5 75.5q0 28 9 97t9 102q0 92 -17 142l-43 82q-3 24 22.5 62t25.5 53q0 31 10.5 47t43.5 20q46 0 55 -61q0 -41 27 -72.5t27 -54.5l-45 -79t-22 -69q0 -10 4 -30.5t4 -48.5q0 -17 -5 -49.5t-7 -46.5t-2 -22q0 -28 39.5 -70.5t39.5 -74.5
q0 -22 -16 -29t-42 -7h-20z" />
    <glyph glyph-name="u" unicode="u" horiz-adv-x="610" 
d="M476 18q-25 0 -61 12t-60 12q5 17 38.5 78.5t33.5 109.5q0 38 1 69l2 61q0 28 -2 49t-2.5 31.5t-0.5 19.5q0 66 51 66q34 0 41 -21.5t7 -93.5q0 -37 6 -141t6 -125q0 -54 -13.5 -90.5t-46.5 -36.5zM208 6q-56 0 -95 67.5t-39 174.5q0 22 -1 64.5t-1 61.5q0 81 12 119.5
t51 38.5q34 0 42 -78q3 -58 5 -89t2 -42q0 -15 -2.5 -49t-2.5 -44q0 -41 8.5 -72t38 -61t62.5 -36t47 -25q-33 -20 -57 -25t-70 -5z" />
    <glyph glyph-name="v" unicode="v" 
d="M454 365q-34 -57 -52.5 -133l-31.5 -133q-11 -35 -41 -63t-68 -28q-35 0 -49.5 30.5t-30 91t-43 125t-47.5 105.5t-27 64t-7 39q0 21 8.5 33t31.5 14q35 0 48.5 -22t18 -69.5t17 -84l28 -81.5t32 -69.5t50.5 -24.5q31 0 49.5 92t42 156.5t36.5 91.5t41 23t28 -48
q0 -24 -9 -53t-25 -56z" />
    <glyph glyph-name="w" unicode="w" horiz-adv-x="780" 
d="M638 133q-28 -109 -97 -109q-54 0 -75.5 109t-32 141.5l-22 65t-31.5 40.5t-27 8t-15 -4.5l-15 -8.5l-12 36q-7 13 -7 26q0 16 10 36l18.5 37t21.5 24t28 7q32 0 49 -25.5t34 -88t33 -143.5q4 -31 19.5 -54.5t29.5 -23.5q16 0 32 26.5t23 54l20 80.5t17 85.5t26.5 59
t50.5 26.5q29 0 29 -35q0 -27 -16.5 -60t-43.5 -132zM293 79q-5 -35 -20 -48t-59 -13q-46 0 -56.5 11.5t-26.5 83t-43 162t-31 112.5q-9 35 -14 59t-5 39q0 35 31 35q34 0 48 -21.5t25 -81l24 -124.5q21 -81 48 -81q25 0 53.5 33t37.5 39q9 -4 9 -38q0 -30 -7.5 -79.5z" />
    <glyph glyph-name="x" unicode="x" 
d="M421 9q-37 0 -55 36q-40 66 -53 82.5t-50 20.5q-18 4 -36 -23.5l-35.5 -53t-32 -38t-35.5 -12.5q-38 0 -38 22q0 13 12.5 36l25.5 45q7 16 40 64.5t33 77.5v15q0 35 -18.5 66t-44 57t-39 47.5t-13.5 37.5q0 22 30 22q37 0 47.5 -9t39 -54t43 -59.5t31.5 -14.5q21 0 45 28
l60.5 89t50.5 26q39 0 39 -26q0 -11 -6 -24t-27.5 -46l-46.5 -71q-28 -48 -28 -87q0 -35 22.5 -65l38.5 -50q17 -25 24 -38t10.5 -37.5t3.5 -29.5q0 -16 -9 -25t-29 -9z" />
    <glyph glyph-name="y" unicode="y" 
d="M326 -7q-36 -118 -71.5 -162t-91.5 -44q-26 0 -39.5 10.5t-13.5 25.5t11.5 28.5t43 23.5t45 31.5t13.5 68.5q0 28 -47 153.5t-53.5 153.5t-38 112.5t-31.5 107.5q0 20 11.5 30.5t37.5 10.5q44 0 59 -61l28.5 -117.5t30.5 -121.5q20 -63 51 -63q33 0 56.5 54t43 147
t31 124.5t51.5 31.5q49 0 49 -46q0 -31 -27 -84.5t-70.5 -173.5t-78.5 -240z" />
    <glyph glyph-name="z" unicode="z" horiz-adv-x="500" 
d="M204 128q8 -38 35 -44.5t84.5 -12t74.5 -16.5t17 -22q0 -20 -47 -20q-26 0 -112 -7.5t-115 -7.5q-26 0 -51 4.5t-43 19.5t-18 40q0 19 9.5 39.5t43.5 63l70 87.5t54 69.5t31.5 48t13.5 38.5q0 23 -25.5 37.5t-66.5 21t-67 19.5t-26 25q0 16 48 16l148 13t94 6
q34 0 61.5 -14t27.5 -41t-37.5 -70l-92 -105.5t-86 -111t-25.5 -76.5z" />
    <glyph glyph-name="braceleft" unicode="{" horiz-adv-x="390" 
d="M119 -31q0 146 -18 205l-42 92q0 12 33 81.5t33 129.5q0 99 33.5 173.5t84.5 74.5q13 1 22 1q24 0 24 -13q-24 -18 -45.5 -75t-21.5 -106q0 -126 -27 -186l-58 -80q36 -37 63.5 -96t27.5 -171q0 -48 22.5 -99l44.5 -100q-14 -9 -32 -9q-49 0 -96.5 50.5t-47.5 127.5z" />
    <glyph glyph-name="bar" unicode="|" horiz-adv-x="280" 
d="M170 176q0 -51 4 -153t4 -106q0 -11 -1 -23t-1 -17q0 -35 -14.5 -58t-31.5 -23q-27 0 -27 55q0 13 1 20t1 26q0 40 -10 172t-10 179q0 50 6 149t13 202q0 18 -0.5 35t-0.5 32q0 48 27 48h10q29 0 35.5 -30t6.5 -109q-5 -140 -8.5 -256t-3.5 -143z" />
    <glyph glyph-name="braceright" unicode="}" horiz-adv-x="390" 
d="M260 19q0 -109 -25.5 -163.5t-87.5 -54.5q-20 0 -44 6l44 103t17 115q0 103 26 156l58 80q-32 60 -58 117t-26 119q0 76 -22.5 134t-26.5 83q7 1 15 2t19 1q45 0 78 -35.5t33 -130.5q0 -197 36.5 -232t36.5 -70q0 -43 -36.5 -95t-36.5 -135z" />
    <glyph glyph-name="asciitilde" unicode="~" horiz-adv-x="584" 
d="M185 245q30 11 56 11q40 0 85 -48t74 -48q51 0 82.5 23t31.5 53q0 18 -12 31t-23 13q-13 0 -48.5 -32.5t-60.5 -32.5q-38 0 -83.5 47.5t-101.5 47.5q-51 0 -93 -43.5t-42 -78.5q0 -22 20 -23q25 -2 65.5 37.5t49.5 42.5z" />
    <glyph glyph-name="Adieresis" unicode="&#xc4;" horiz-adv-x="722" 
d="M384 153q-131 0 -152.5 -7.5t-45 -49.5t-39.5 -65.5t-36.5 -26.5t-28.5 -3q-36 0 -36 36q0 15 5.5 32t22.5 50.5t33 74l90 237.5l58 191q40 106 105 106q54 0 88.5 -46t61 -129.5l46 -149t69 -191.5t49.5 -168t-36 -42q-38 0 -95.5 75.5t-158.5 75.5zM378 534
q-48 0 -75.5 -66t-27.5 -128q0 -53 18.5 -71.5t84.5 -18.5q49 0 70.5 13.5t21.5 44.5q0 14 -4.5 34t-14.5 47q-13 63 -25.5 104t-47.5 41zM274 902q22 0 32.5 -12.5t10.5 -30.5q0 -17 -9.5 -29.5t-27.5 -12.5q-25 0 -39 13t-14 32q0 16 12 28t35 12zM466 902
q21 -7 31.5 -19.5t10.5 -28.5t-10.5 -26.5t-28.5 -10.5q-24 0 -37.5 15.5t-13.5 35.5q0 37 33 37q7 0 15 -3z" />
    <glyph glyph-name="Aring" unicode="&#xc5;" horiz-adv-x="722" 
d="M384 153q-131 0 -152.5 -7.5t-45 -49.5t-39.5 -65.5t-36.5 -26.5t-28.5 -3q-36 0 -36 36q0 15 5.5 32t22.5 50.5t33 74l90 237.5l58 191q40 106 105 106q54 0 88.5 -46t61 -129.5l46 -149t69 -191.5t49.5 -168t-36 -42q-38 0 -95.5 75.5t-158.5 75.5zM378 534
q-48 0 -75.5 -66t-27.5 -128q0 -53 18.5 -71.5t84.5 -18.5q49 0 70.5 13.5t21.5 44.5q0 14 -4.5 34t-14.5 47q-13 63 -25.5 104t-47.5 41zM365 936q38 0 64 -26t26 -64t-26 -64t-64 -26t-64 26t-26 64t26 64t64 26zM365 796q20 0 30 14t10 36q0 24 -10 42t-30 18
q-21 0 -40.5 -19.5t-19.5 -40.5q0 -20 19 -35t41 -15z" />
    <glyph glyph-name="Ccedilla" unicode="&#xc7;" horiz-adv-x="722" 
d="M397 -11q-149 0 -250 87t-101 276q0 186 104 287t241 101q54 0 118.5 -27.5t114 -72.5t49.5 -87q0 -25 -28 -25q-71 0 -128.5 63.5t-119.5 63.5q-98 0 -161 -79.5t-63 -217.5q0 -146 53 -218t177 -72q60 0 105 43l50.5 64t25.5 21t31 8q42 0 42 -51q0 -62 -85 -113
t-175 -51zM348 -78q10 -21 16 -26t34 -14q5 5 5 12q0 6 -5 24.5t-5 36.5q0 35 28 31q4 0 10 -1q-24 5 -65 12.5t-64 7.5q-12 0 -12 -3t15.5 -9.5t23.5 -25z" />
    <glyph glyph-name="Eacute" unicode="&#xc9;" horiz-adv-x="667" 
d="M481 -12q-74 0 -133 2t-139 4q-97 0 -97 73q0 1 3 93t3 161q0 67 -4 133t-8 139q0 83 20 111.5t58 28.5q54 0 148.5 -2.5l166.5 -4.5h23q38 0 50 -10t12 -32q0 -29 -13.5 -35.5t-59.5 -6.5h-42q-21 0 -65.5 3.5t-58.5 3.5q-61 0 -95.5 -23t-34.5 -87q0 -66 49 -88.5
t124 -22.5q14 0 31.5 0.5t37.5 1.5h27q35 0 46.5 -6.5t11.5 -31.5q0 -10 -1.5 -24.5t-15.5 -23.5t-35 -9q-10 0 -28 2t-24 2q-11 0 -42 3t-48 3q-56 0 -88.5 -28.5t-32.5 -110.5q0 -73 49 -98t123 -25q16 0 42 1t34 1q13 0 32.5 1t43.5 3q31 0 47 -10.5t16 -41.5t-24 -40
t-72 -9h-37zM452 866q28 19 28 36q0 12 -11 20t-26 10q-12 2 -31.5 -4.5t-32.5 -21.5l-45.5 -71t-19.5 -39q0 -11 24 -11q20 0 58 34.5t56 46.5z" />
    <glyph glyph-name="Ntilde" unicode="&#xd1;" horiz-adv-x="722" 
d="M591 6q-49 0 -103.5 57.5t-113.5 189t-81.5 175t-58.5 38.5q-33 -5 -43.5 -41t-10.5 -165q0 -125 -4 -189.5t-45 -64.5q-31 0 -44 14t-13 51q0 18 3.5 41t7.5 61t4 63q0 49 -6 84l-12 73q0 28 6 67.5t6 53.5q0 8 -5.5 53t-5.5 59q0 42 15 65t56 23q58 0 72 -9t35.5 -49.5
l84.5 -163.5t106.5 -180t79.5 -57q34 0 34 66v321q0 37 10.5 51.5t37.5 14.5q39 0 50 -54t11 -200q0 -88 -4 -114q-8 -28 -15 -55q0 -38 9.5 -81.5t9.5 -76.5q0 -57 -17 -89t-56 -32zM357 839q77 -28 117 -28q26 0 36 10t6 24q-6 24 -28 24q-9 0 -29 -1.5t-25 -1.5
q-15 0 -28.5 1t-30 5t-36.5 4q-47 0 -85.5 -20t-38.5 -33q0 -5 7 -5t18.5 19.5t38.5 19.5q13 0 32.5 -4.5t45.5 -13.5z" />
    <glyph glyph-name="Odieresis" unicode="&#xd6;" horiz-adv-x="778" 
d="M383 -16q-169 0 -260 104t-91 259q0 150 91.5 265.5t271.5 115.5q139 0 242 -94t103 -317q0 -333 -357 -333zM358 638h-15q-92 0 -150 -85.5t-58 -187.5q0 -161 78 -243.5t170 -82.5q86 0 164 87.5t78 226.5q0 137 -83.5 211t-183.5 74zM299 902q22 0 32.5 -12.5
t10.5 -30.5q0 -17 -9.5 -29.5t-27.5 -12.5q-25 0 -39 13t-14 32q0 16 12 28t35 12zM491 902q21 -7 31.5 -19.5t10.5 -28.5t-10.5 -26.5t-28.5 -10.5q-24 0 -37.5 15.5t-13.5 35.5q0 37 33 37q7 0 15 -3z" />
    <glyph glyph-name="Udieresis" unicode="&#xdc;" horiz-adv-x="722" 
d="M642 211q-7 -83 -16 -117.5t-70 -73.5t-199 -39q-136 0 -198.5 75.5t-74 155.5t-11.5 168v242q0 56 20.5 79.5t52.5 23.5q25 0 45 -35.5t15 -61.5q-12 -60 -12 -248q0 -149 25.5 -234.5t143.5 -85.5q108 0 145.5 68t37.5 183q0 28 -3.5 85.5t-3.5 80.5q0 21 -0.5 42
t-0.5 41q0 79 13 119t54 40q33 0 44 -49t11 -126q0 -64 -5 -157t-13 -176zM273 902q22 0 32.5 -12.5t10.5 -30.5q0 -17 -9.5 -29.5t-27.5 -12.5q-25 0 -39 13t-14 32q0 16 12 28t35 12zM465 902q21 -7 31.5 -19.5t10.5 -28.5t-10.5 -26.5t-28.5 -10.5q-24 0 -37.5 15.5
t-13.5 35.5q0 37 33 37q7 0 15 -3z" />
    <glyph glyph-name="aacute" unicode="&#xe1;" horiz-adv-x="556" 
d="M252 491q-40 0 -80.5 -35t-58.5 -32q-37 4 -37 22q0 16 32 38.5t81 38.5t112 16q119 0 153 -86.5t34 -258.5q0 -125 -11.5 -147t-48.5 -28q-13 -2 -43.5 18.5t-49.5 20.5q-10 0 -22 -3q-50 -30 -84 -45.5t-68 -15.5h-12q-48 0 -84.5 30t-36.5 85q0 76 38 118t95 52
q13 4 24 4q13 0 13 -7q0 -6 -19 -21.5t-30.5 -41.5t-11.5 -55q0 -36 40 -69t83 -33q17 0 45.5 11t51 46t22.5 75q0 48 -8.5 63t-29 29t-31.5 14q-10 -1 -12 -1q1 2 3 4l43 42q17 20 17 43q0 47 -28 78t-81 31zM376 675q28 19 28 36q0 12 -11 20t-26 10q-12 2 -31.5 -4.5
t-32.5 -21.5l-45.5 -71t-19.5 -39q0 -11 24 -11q20 0 58 34.5t56 46.5z" />
    <glyph glyph-name="agrave" unicode="&#xe0;" horiz-adv-x="556" 
d="M252 491q-40 0 -80.5 -35t-58.5 -32q-37 4 -37 22q0 16 32 38.5t81 38.5t112 16q119 0 153 -86.5t34 -258.5q0 -125 -11.5 -147t-48.5 -28q-13 -2 -43.5 18.5t-49.5 20.5q-10 0 -22 -3q-50 -30 -84 -45.5t-68 -15.5h-12q-48 0 -84.5 30t-36.5 85q0 76 38 118t95 52
q13 4 24 4q13 0 13 -7q0 -6 -19 -21.5t-30.5 -41.5t-11.5 -55q0 -36 40 -69t83 -33q17 0 45.5 11t51 46t22.5 75q0 48 -8.5 63t-29 29t-31.5 14q-10 -1 -12 -1q1 2 3 4l43 42q17 20 17 43q0 47 -28 78t-81 31zM183 675q-28 19 -28 36q0 12 11 20t26 10q12 2 31.5 -4.5
t32.5 -21.5l45.5 -71t19.5 -39q0 -11 -24 -11q-20 0 -58 34.5t-56 46.5z" />
    <glyph glyph-name="acircumflex" unicode="&#xe2;" horiz-adv-x="556" 
d="M252 491q-40 0 -80.5 -35t-58.5 -32q-37 4 -37 22q0 16 32 38.5t81 38.5t112 16q119 0 153 -86.5t34 -258.5q0 -125 -11.5 -147t-48.5 -28q-13 -2 -43.5 18.5t-49.5 20.5q-10 0 -22 -3q-50 -30 -84 -45.5t-68 -15.5h-12q-48 0 -84.5 30t-36.5 85q0 76 38 118t95 52
q13 4 24 4q13 0 13 -7q0 -6 -19 -21.5t-30.5 -41.5t-11.5 -55q0 -36 40 -69t83 -33q17 0 45.5 11t51 46t22.5 75q0 48 -8.5 63t-29 29t-31.5 14q-10 -1 -12 -1q1 2 3 4l43 42q17 20 17 43q0 47 -28 78t-81 31zM373 651q9 -14 9 -22t-6 -8q-12 0 -42.5 30.5t-58.5 30.5
q-27 0 -43 -22.5t-27.5 -30t-20.5 -7.5q-10 0 -10 11q0 10 16.5 33.5l39.5 57.5q10 11 44 11q43 0 53 -11q19 -33 46 -73z" />
    <glyph glyph-name="adieresis" unicode="&#xe4;" horiz-adv-x="556" 
d="M252 491q-40 0 -80.5 -35t-58.5 -32q-37 4 -37 22q0 16 32 38.5t81 38.5t112 16q119 0 153 -86.5t34 -258.5q0 -125 -11.5 -147t-48.5 -28q-13 -2 -43.5 18.5t-49.5 20.5q-10 0 -22 -3q-50 -30 -84 -45.5t-68 -15.5h-12q-48 0 -84.5 30t-36.5 85q0 76 38 118t95 52
q13 4 24 4q13 0 13 -7q0 -6 -19 -21.5t-30.5 -41.5t-11.5 -55q0 -36 40 -69t83 -33q17 0 45.5 11t51 46t22.5 75q0 48 -8.5 63t-29 29t-31.5 14q-10 -1 -12 -1q1 2 3 4l43 42q17 20 17 43q0 47 -28 78t-81 31zM188 711q22 0 32.5 -12.5t10.5 -30.5q0 -17 -9.5 -29.5
t-27.5 -12.5q-25 0 -39 13t-14 32q0 16 12 28t35 12zM380 711q21 -7 31.5 -19.5t10.5 -28.5t-10.5 -26.5t-28.5 -10.5q-24 0 -37.5 15.5t-13.5 35.5q0 37 33 37q7 0 15 -3z" />
    <glyph glyph-name="atilde" unicode="&#xe3;" horiz-adv-x="556" 
d="M252 491q-40 0 -80.5 -35t-58.5 -32q-37 4 -37 22q0 16 32 38.5t81 38.5t112 16q119 0 153 -86.5t34 -258.5q0 -125 -11.5 -147t-48.5 -28q-13 -2 -43.5 18.5t-49.5 20.5q-10 0 -22 -3q-50 -30 -84 -45.5t-68 -15.5h-12q-48 0 -84.5 30t-36.5 85q0 76 38 118t95 52
q13 4 24 4q13 0 13 -7q0 -6 -19 -21.5t-30.5 -41.5t-11.5 -55q0 -36 40 -69t83 -33q17 0 45.5 11t51 46t22.5 75q0 48 -8.5 63t-29 29t-31.5 14q-10 -1 -12 -1q1 2 3 4l43 42q17 20 17 43q0 47 -28 78t-81 31zM268 648q77 -28 117 -28q26 0 36 10t6 24q-6 24 -28 24
q-9 0 -29 -1.5t-25 -1.5q-15 0 -28.5 1t-30 5t-36.5 4q-47 0 -85.5 -20t-38.5 -33q0 -5 7 -5t18.5 19.5t38.5 19.5q13 0 32.5 -4.5t45.5 -13.5z" />
    <glyph glyph-name="aring" unicode="&#xe5;" horiz-adv-x="556" 
d="M252 491q-40 0 -80.5 -35t-58.5 -32q-37 4 -37 22q0 16 32 38.5t81 38.5t112 16q119 0 153 -86.5t34 -258.5q0 -125 -11.5 -147t-48.5 -28q-13 -2 -43.5 18.5t-49.5 20.5q-10 0 -22 -3q-50 -30 -84 -45.5t-68 -15.5h-12q-48 0 -84.5 30t-36.5 85q0 76 38 118t95 52
q13 4 24 4q13 0 13 -7q0 -6 -19 -21.5t-30.5 -41.5t-11.5 -55q0 -36 40 -69t83 -33q17 0 45.5 11t51 46t22.5 75q0 48 -8.5 63t-29 29t-31.5 14q-10 -1 -12 -1q1 2 3 4l43 42q17 20 17 43q0 47 -28 78t-81 31zM279 745q38 0 64 -26t26 -64t-26 -64t-64 -26t-64 26t-26 64
t26 64t64 26zM279 605q20 0 30 14t10 36q0 24 -10 42t-30 18q-21 0 -40.5 -19.5t-19.5 -40.5q0 -20 19 -35t41 -15z" />
    <glyph glyph-name="ccedilla" unicode="&#xe7;" horiz-adv-x="556" 
d="M471 394q-11 -3 -19 -3q-26 0 -59.5 43.5t-91.5 43.5q-78 0 -120.5 -74t-42.5 -155q0 -71 45 -135.5t106 -64.5q45 0 89.5 49.5t70.5 49.5q4 0 16 -2q18 -5 18 -30q0 -23 -18 -55q-22 -33 -59.5 -53t-104.5 -20q-141 0 -197.5 63t-56.5 185q0 138 51.5 220.5t196.5 82.5
q76 0 121.5 -23.5t61 -51.5t15.5 -45q0 -21 -22 -25zM257 -78q10 -21 16 -26t34 -14q5 5 5 12q0 6 -5 24.5t-5 36.5q0 35 28 31q4 0 10 -1q-24 5 -65 12.5t-64 7.5q-12 0 -12 -3t15.5 -9.5t23.5 -25z" />
    <glyph glyph-name="eacute" unicode="&#xe9;" horiz-adv-x="556" 
d="M458 254q-27 0 -81.5 6t-69.5 6q-97 0 -133 -22t-36 -63t43 -84t102 -43q5 -1 15 -1q23 0 40 12q19 17 29.5 24.5t25 13t29.5 5.5q17 0 28.5 -6t11.5 -17q0 -9 -25.5 -34.5t-52.5 -41.5t-119 -16q-110 0 -176 67t-66 187q0 103 55.5 197t198.5 94q106 0 174 -60.5
t68 -157.5q0 -37 -12.5 -51.5t-48.5 -14.5zM259 496q-56 0 -85.5 -25.5t-29.5 -62.5v-9q5 -39 49 -68t114 -29q54 0 81.5 23t27.5 50q0 28 -50.5 74.5t-106.5 46.5zM376 675q28 19 28 36q0 12 -11 20t-26 10q-12 2 -31.5 -4.5t-32.5 -21.5l-45.5 -71t-19.5 -39q0 -11 24 -11
q20 0 58 34.5t56 46.5z" />
    <glyph glyph-name="egrave" unicode="&#xe8;" horiz-adv-x="556" 
d="M458 254q-27 0 -81.5 6t-69.5 6q-97 0 -133 -22t-36 -63t43 -84t102 -43q5 -1 15 -1q23 0 40 12q19 17 29.5 24.5t25 13t29.5 5.5q17 0 28.5 -6t11.5 -17q0 -9 -25.5 -34.5t-52.5 -41.5t-119 -16q-110 0 -176 67t-66 187q0 103 55.5 197t198.5 94q106 0 174 -60.5
t68 -157.5q0 -37 -12.5 -51.5t-48.5 -14.5zM259 496q-56 0 -85.5 -25.5t-29.5 -62.5v-9q5 -39 49 -68t114 -29q54 0 81.5 23t27.5 50q0 28 -50.5 74.5t-106.5 46.5zM183 675q-28 19 -28 36q0 12 11 20t26 10q12 2 31.5 -4.5t32.5 -21.5l45.5 -71t19.5 -39q0 -11 -24 -11
q-20 0 -58 34.5t-56 46.5z" />
    <glyph glyph-name="ecircumflex" unicode="&#xea;" horiz-adv-x="556" 
d="M458 254q-27 0 -81.5 6t-69.5 6q-97 0 -133 -22t-36 -63t43 -84t102 -43q5 -1 15 -1q23 0 40 12q19 17 29.5 24.5t25 13t29.5 5.5q17 0 28.5 -6t11.5 -17q0 -9 -25.5 -34.5t-52.5 -41.5t-119 -16q-110 0 -176 67t-66 187q0 103 55.5 197t198.5 94q106 0 174 -60.5
t68 -157.5q0 -37 -12.5 -51.5t-48.5 -14.5zM259 496q-56 0 -85.5 -25.5t-29.5 -62.5v-9q5 -39 49 -68t114 -29q54 0 81.5 23t27.5 50q0 28 -50.5 74.5t-106.5 46.5zM373 651q9 -14 9 -22t-6 -8q-12 0 -42.5 30.5t-58.5 30.5q-27 0 -43 -22.5t-27.5 -30t-20.5 -7.5
q-10 0 -10 11q0 10 16.5 33.5l39.5 57.5q10 11 44 11q43 0 53 -11q19 -33 46 -73z" />
    <glyph glyph-name="edieresis" unicode="&#xeb;" horiz-adv-x="556" 
d="M458 254q-27 0 -81.5 6t-69.5 6q-97 0 -133 -22t-36 -63t43 -84t102 -43q5 -1 15 -1q23 0 40 12q19 17 29.5 24.5t25 13t29.5 5.5q17 0 28.5 -6t11.5 -17q0 -9 -25.5 -34.5t-52.5 -41.5t-119 -16q-110 0 -176 67t-66 187q0 103 55.5 197t198.5 94q106 0 174 -60.5
t68 -157.5q0 -37 -12.5 -51.5t-48.5 -14.5zM259 496q-56 0 -85.5 -25.5t-29.5 -62.5v-9q5 -39 49 -68t114 -29q54 0 81.5 23t27.5 50q0 28 -50.5 74.5t-106.5 46.5zM188 711q22 0 32.5 -12.5t10.5 -30.5q0 -17 -9.5 -29.5t-27.5 -12.5q-25 0 -39 13t-14 32q0 16 12 28t35 12
zM380 711q21 -7 31.5 -19.5t10.5 -28.5t-10.5 -26.5t-28.5 -10.5q-24 0 -37.5 15.5t-13.5 35.5q0 37 33 37q7 0 15 -3z" />
    <glyph glyph-name="iacute" unicode="&#xed;" horiz-adv-x="278" 
d="M137 3q-26 0 -37 15.5t-11 51.5q0 4 6 61t6 96q0 44 -9 113t-9 99q0 32 15.5 55.5t38.5 23.5q24 0 39 -22t15 -69v-339q0 -85 -54 -85zM237 675q28 19 28 36q0 12 -11 20t-26 10q-12 2 -31.5 -4.5t-32.5 -21.5l-45.5 -71t-19.5 -39q0 -11 24 -11q20 0 58 34.5t56 46.5z
" />
    <glyph glyph-name="igrave" unicode="&#xec;" horiz-adv-x="278" 
d="M137 3q-26 0 -37 15.5t-11 51.5q0 4 6 61t6 96q0 44 -9 113t-9 99q0 32 15.5 55.5t38.5 23.5q24 0 39 -22t15 -69v-339q0 -85 -54 -85zM44 675q-28 19 -28 36q0 12 11 20t26 10q12 2 31.5 -4.5t32.5 -21.5l45.5 -71t19.5 -39q0 -11 -24 -11q-20 0 -58 34.5t-56 46.5z" />
    <glyph glyph-name="icircumflex" unicode="&#xee;" horiz-adv-x="278" 
d="M137 3q-26 0 -37 15.5t-11 51.5q0 4 6 61t6 96q0 44 -9 113t-9 99q0 32 15.5 55.5t38.5 23.5q24 0 39 -22t15 -69v-339q0 -85 -54 -85zM234 651q9 -14 9 -22t-6 -8q-12 0 -42.5 30.5t-58.5 30.5q-27 0 -43 -22.5t-27.5 -30t-20.5 -7.5q-10 0 -10 11q0 10 16.5 33.5
l39.5 57.5q10 11 44 11q43 0 53 -11q19 -33 46 -73z" />
    <glyph glyph-name="idieresis" unicode="&#xef;" horiz-adv-x="278" 
d="M137 3q-26 0 -37 15.5t-11 51.5q0 4 6 61t6 96q0 44 -9 113t-9 99q0 32 15.5 55.5t38.5 23.5q24 0 39 -22t15 -69v-339q0 -85 -54 -85zM49 711q22 0 32.5 -12.5t10.5 -30.5q0 -17 -9.5 -29.5t-27.5 -12.5q-25 0 -39 13t-14 32q0 16 12 28t35 12zM241 711
q21 -7 31.5 -19.5t10.5 -28.5t-10.5 -26.5t-28.5 -10.5q-24 0 -37.5 15.5t-13.5 35.5q0 37 33 37q7 0 15 -3z" />
    <glyph glyph-name="ntilde" unicode="&#xf1;" horiz-adv-x="611" 
d="M176 324q0 -9 -6 -116t-6 -132q0 -24 -12 -48.5t-25 -24.5q-20 0 -37 21t-17 52q0 26 3 79t3 60v30v25q0 97 -3.5 121.5t-3.5 38.5q0 41 18.5 64.5t60.5 23.5q24 0 44.5 -20.5t28.5 -22.5q0 -1 4.5 -14t1.5 -16l-38 -67.5t-16 -53.5zM393 536q72 0 109 -43t37 -121
q0 -56 -3 -148t-3 -118q0 -48 -10.5 -69.5t-38.5 -21.5q-26 0 -37 20t-11 65v254q0 36 -41 73.5t-86 41.5q-5 8 -12 14t0 10l39 33q15 10 57 10zM302 648q77 -28 117 -28q26 0 36 10t6 24q-6 24 -28 24q-9 0 -29 -1.5t-25 -1.5q-15 0 -28.5 1t-30 5t-36.5 4q-47 0 -85.5 -20
t-38.5 -33q0 -5 7 -5t18.5 19.5t38.5 19.5q13 0 32.5 -4.5t45.5 -13.5z" />
    <glyph glyph-name="oacute" unicode="&#xf3;" horiz-adv-x="611" 
d="M338 -17q-173 0 -243.5 87t-70.5 191q0 96 66.5 184.5t193.5 88.5q119 0 204.5 -65t85.5 -189q0 -122 -80 -209.5t-156 -87.5zM302 497q-70 0 -126 -65t-56 -158q0 -94 52.5 -165t117.5 -71q83 0 129 66t46 164q0 92 -47.5 160.5t-115.5 68.5zM403 675q28 19 28 36
q0 12 -11 20t-26 10q-12 2 -31.5 -4.5t-32.5 -21.5l-45.5 -71t-19.5 -39q0 -11 24 -11q20 0 58 34.5t56 46.5z" />
    <glyph glyph-name="ograve" unicode="&#xf2;" horiz-adv-x="611" 
d="M338 -17q-173 0 -243.5 87t-70.5 191q0 96 66.5 184.5t193.5 88.5q119 0 204.5 -65t85.5 -189q0 -122 -80 -209.5t-156 -87.5zM302 497q-70 0 -126 -65t-56 -158q0 -94 52.5 -165t117.5 -71q83 0 129 66t46 164q0 92 -47.5 160.5t-115.5 68.5zM210 675q-28 19 -28 36
q0 12 11 20t26 10q12 2 31.5 -4.5t32.5 -21.5l45.5 -71t19.5 -39q0 -11 -24 -11q-20 0 -58 34.5t-56 46.5z" />
    <glyph glyph-name="ocircumflex" unicode="&#xf4;" horiz-adv-x="611" 
d="M338 -17q-173 0 -243.5 87t-70.5 191q0 96 66.5 184.5t193.5 88.5q119 0 204.5 -65t85.5 -189q0 -122 -80 -209.5t-156 -87.5zM302 497q-70 0 -126 -65t-56 -158q0 -94 52.5 -165t117.5 -71q83 0 129 66t46 164q0 92 -47.5 160.5t-115.5 68.5zM400 651q9 -14 9 -22t-6 -8
q-12 0 -42.5 30.5t-58.5 30.5q-27 0 -43 -22.5t-27.5 -30t-20.5 -7.5q-10 0 -10 11q0 10 16.5 33.5l39.5 57.5q10 11 44 11q43 0 53 -11q19 -33 46 -73z" />
    <glyph glyph-name="odieresis" unicode="&#xf6;" horiz-adv-x="611" 
d="M338 -17q-173 0 -243.5 87t-70.5 191q0 96 66.5 184.5t193.5 88.5q119 0 204.5 -65t85.5 -189q0 -122 -80 -209.5t-156 -87.5zM302 497q-70 0 -126 -65t-56 -158q0 -94 52.5 -165t117.5 -71q83 0 129 66t46 164q0 92 -47.5 160.5t-115.5 68.5zM215 711q22 0 32.5 -12.5
t10.5 -30.5q0 -17 -9.5 -29.5t-27.5 -12.5q-25 0 -39 13t-14 32q0 16 12 28t35 12zM407 711q21 -7 31.5 -19.5t10.5 -28.5t-10.5 -26.5t-28.5 -10.5q-24 0 -37.5 15.5t-13.5 35.5q0 37 33 37q7 0 15 -3z" />
    <glyph glyph-name="otilde" unicode="&#xf5;" horiz-adv-x="611" 
d="M338 -17q-173 0 -243.5 87t-70.5 191q0 96 66.5 184.5t193.5 88.5q119 0 204.5 -65t85.5 -189q0 -122 -80 -209.5t-156 -87.5zM302 497q-70 0 -126 -65t-56 -158q0 -94 52.5 -165t117.5 -71q83 0 129 66t46 164q0 92 -47.5 160.5t-115.5 68.5zM295 648q77 -28 117 -28
q26 0 36 10t6 24q-6 24 -28 24q-9 0 -29 -1.5t-25 -1.5q-15 0 -28.5 1t-30 5t-36.5 4q-47 0 -85.5 -20t-38.5 -33q0 -5 7 -5t18.5 19.5t38.5 19.5q13 0 32.5 -4.5t45.5 -13.5z" />
    <glyph glyph-name="uacute" unicode="&#xfa;" horiz-adv-x="611" 
d="M476 18q-25 0 -61 12t-60 12q5 17 38.5 78.5t33.5 109.5q0 38 1 69l2 61q0 28 -2 49t-2.5 31.5t-0.5 19.5q0 66 51 66q34 0 41 -21.5t7 -93.5q0 -37 6 -141t6 -125q0 -54 -13.5 -90.5t-46.5 -36.5zM208 6q-56 0 -95 67.5t-39 174.5q0 22 -1 64.5t-1 61.5q0 81 12 119.5
t51 38.5q34 0 42 -78q3 -58 5 -89t2 -42q0 -15 -2.5 -49t-2.5 -44q0 -41 8.5 -72t38 -61t62.5 -36t47 -25q-33 -20 -57 -25t-70 -5zM405 675q28 19 28 36q0 12 -11 20t-26 10q-12 2 -31.5 -4.5t-32.5 -21.5l-45.5 -71t-19.5 -39q0 -11 24 -11q20 0 58 34.5t56 46.5z" />
    <glyph glyph-name="ugrave" unicode="&#xf9;" horiz-adv-x="611" 
d="M476 18q-25 0 -61 12t-60 12q5 17 38.5 78.5t33.5 109.5q0 38 1 69l2 61q0 28 -2 49t-2.5 31.5t-0.5 19.5q0 66 51 66q34 0 41 -21.5t7 -93.5q0 -37 6 -141t6 -125q0 -54 -13.5 -90.5t-46.5 -36.5zM208 6q-56 0 -95 67.5t-39 174.5q0 22 -1 64.5t-1 61.5q0 81 12 119.5
t51 38.5q34 0 42 -78q3 -58 5 -89t2 -42q0 -15 -2.5 -49t-2.5 -44q0 -41 8.5 -72t38 -61t62.5 -36t47 -25q-33 -20 -57 -25t-70 -5zM212 675q-28 19 -28 36q0 12 11 20t26 10q12 2 31.5 -4.5t32.5 -21.5l45.5 -71t19.5 -39q0 -11 -24 -11q-20 0 -58 34.5t-56 46.5z" />
    <glyph glyph-name="ucircumflex" unicode="&#xfb;" horiz-adv-x="611" 
d="M476 18q-25 0 -61 12t-60 12q5 17 38.5 78.5t33.5 109.5q0 38 1 69l2 61q0 28 -2 49t-2.5 31.5t-0.5 19.5q0 66 51 66q34 0 41 -21.5t7 -93.5q0 -37 6 -141t6 -125q0 -54 -13.5 -90.5t-46.5 -36.5zM208 6q-56 0 -95 67.5t-39 174.5q0 22 -1 64.5t-1 61.5q0 81 12 119.5
t51 38.5q34 0 42 -78q3 -58 5 -89t2 -42q0 -15 -2.5 -49t-2.5 -44q0 -41 8.5 -72t38 -61t62.5 -36t47 -25q-33 -20 -57 -25t-70 -5zM402 651q9 -14 9 -22t-6 -8q-12 0 -42.5 30.5t-58.5 30.5q-27 0 -43 -22.5t-27.5 -30t-20.5 -7.5q-10 0 -10 11q0 10 16.5 33.5l39.5 57.5
q10 11 44 11q43 0 53 -11q19 -33 46 -73z" />
    <glyph glyph-name="udieresis" unicode="&#xfc;" horiz-adv-x="611" 
d="M476 18q-25 0 -61 12t-60 12q5 17 38.5 78.5t33.5 109.5q0 38 1 69l2 61q0 28 -2 49t-2.5 31.5t-0.5 19.5q0 66 51 66q34 0 41 -21.5t7 -93.5q0 -37 6 -141t6 -125q0 -54 -13.5 -90.5t-46.5 -36.5zM208 6q-56 0 -95 67.5t-39 174.5q0 22 -1 64.5t-1 61.5q0 81 12 119.5
t51 38.5q34 0 42 -78q3 -58 5 -89t2 -42q0 -15 -2.5 -49t-2.5 -44q0 -41 8.5 -72t38 -61t62.5 -36t47 -25q-33 -20 -57 -25t-70 -5zM217 711q22 0 32.5 -12.5t10.5 -30.5q0 -17 -9.5 -29.5t-27.5 -12.5q-25 0 -39 13t-14 32q0 16 12 28t35 12zM409 711q21 -7 31.5 -19.5
t10.5 -28.5t-10.5 -26.5t-28.5 -10.5q-24 0 -37.5 15.5t-13.5 35.5q0 37 33 37q7 0 15 -3z" />
    <glyph glyph-name="degree" unicode="&#xb0;" horiz-adv-x="400" 
d="M199 460q28 9 56.5 45.5t28.5 68.5q0 31 -15 68t-34 56q34 -5 66 -41.5t32 -82.5q0 -43 -37 -80t-77 -37q-11 0 -20 3zM72 580q0 45 33 79t69 39q-17 -17 -36.5 -56t-23.5 -68t23 -63t56 -51q-39 -5 -80 33t-41 87z" />
    <glyph glyph-name="cent" unicode="&#xa2;" horiz-adv-x="556" 
d="M150 336q0 -62 38 -116l40 119q8 24 25 86.5t28 106.5q-62 0 -96.5 -64t-34.5 -132zM445 511q8 -14 8 -29q0 -18 -15.5 -21t-20.5 -3q-22 0 -43 26t-33 33l-56 -139q-21 -53 -36.5 -101t-27.5 -91q27 -21 58 -21q39 0 76.5 42.5t60.5 42.5q3 0 15.5 -3t12.5 -24t-15 -48
q-18 -28 -50 -45t-90 -17q-45 0 -83 8l-23 -118q-6 -19 -18 -19q-4 0 -23 8.5t-19 33.5q0 15 7.5 37.5t27.5 75.5q-46 24 -66 71t-20 115q0 118 44.5 188.5t167.5 70.5h9q13 57 23 86.5t35 29.5q35 0 35 -32q0 -28 -24 -94q30 -9 51 -26t32 -37z" />
    <glyph glyph-name="sterling" unicode="&#xa3;" 
d="M357 -12q-32 0 -79.5 10.5t-67.5 10.5q-14 0 -32.5 -4t-32.5 -4q-36 0 -36 34q0 25 23.5 83t23.5 110q0 60 -42 89q-49 21 -60 28q2 17 29 33.5t27 35.5q0 11 -7.5 29t-13 41.5t-5.5 49.5q0 74 50 124t175 50q91 0 125 -38.5t43.5 -71t9.5 -39.5q0 -25 -20 -25
q-21 0 -44 29q-27 50 -45 76t-63 26q-55 0 -97.5 -39.5t-42.5 -93.5q0 -101 60 -145l98 -54q-60 -38 -89 -74.5t-41 -82.5t-12 -57q0 -21 11.5 -35.5t33.5 -14.5q12 0 24 4q16 0 51.5 1t52.5 1q59 0 92.5 -10.5t33.5 -40.5q0 -24 -11.5 -33.5t-32.5 -9.5q-4 0 -37 3.5
t-52 3.5z" />
    <glyph glyph-name="section" unicode="&#xa7;" 
d="M431 106q1 -6 22 -55.5t21 -102.5q0 -63 -62 -104t-132 -41q-57 0 -112.5 33t-63.5 48t-8 22q0 15 10 28t26 13q11 0 23 -6.5t30 -24t46 -28t57 -10.5q43 0 72 20.5t29 56.5q0 28 -36.5 70.5t-90.5 74.5q-23 15 -114.5 64t-91.5 87q0 67 19 80q15 8 30 17
q41 -76 60.5 -95t77 -48.5t72.5 -35.5t56 -15q30 15 39 24t9 49t-35.5 72.5t-81.5 52t-76 28t-62 8.5q-22 0 -41 -4q4 13 4 26q0 19 -20 61t-20 95q0 83 42 120t145 37q51 0 116 -33.5t65 -59.5q0 -16 -22.5 -20.5t-33.5 -4.5q-26 0 -60 29t-61 29q-10 0 -31 -3t-48 -32
t-27 -65q0 -31 22.5 -58.5t112.5 -61.5t149.5 -82.5t59.5 -115.5q0 -52 -43.5 -89.5t-41.5 -49.5z" />
    <glyph glyph-name="bullet" unicode="&#x2022;" horiz-adv-x="350" 
d="M218 218q-20 -10 -46 -10q-31 0 -56 15.5t-29.5 34t-4.5 27.5q0 32 21 57t41 30t34 5q31 0 54 -12t31.5 -32t8.5 -33q0 -24 -16 -47.5t-38 -34.5z" />
    <glyph glyph-name="germandbls" unicode="&#xdf;" horiz-adv-x="610" 
d="M330 4q-4 7 -4 14q0 9 68.5 55.5t68.5 136.5q0 101 -66.5 113.5t-66.5 49.5q0 19 42.5 66.5t46.5 66.5t4 32q0 48 -35.5 90t-88.5 42q-75 0 -101 -57t-26 -161q0 -32 3 -102t3 -104t0.5 -72t1.5 -80q0 -56 -9 -76t-41 -20q-36 -3 -45.5 25.5t-9.5 99.5v45v339
q0 103 52 166t178 63q124 0 174 -53t50 -134q0 -51 -30 -93t-30 -64q0 -14 48.5 -65.5t48.5 -146.5q0 -85 -64.5 -141t-126.5 -56q-34 0 -45 21z" />
    <glyph glyph-name="registered" unicode="&#xae;" horiz-adv-x="735" 
d="M355 -9q-188 0 -279 113.5t-91 243.5q0 88 20 110l53 42q-5 -22 -6 -32.5t-1 -27.5v-43.5t1 -42.5q0 -61 23 -105.5t58.5 -77t55.5 -32.5q19 0 28.5 29t9.5 90q0 27 1 84.5t1 84.5q0 74 -5 117t-19 62q-4 1 -7.5 1h-4.5q-9 0 -22.5 -11t-31 -19t-30 -9.5t-21.5 -7.5
l16 71q13 31 69.5 59t85.5 37.5t65 9.5q50 0 145 -26q68 -15 100.5 -24.5t91 -58t73 -114t14.5 -190.5q0 -130 -100 -231.5t-293 -101.5zM633 557q-50 47 -76.5 66t-72.5 41t-84 22q-51 0 -98.5 -17.5t-75.5 -51.5q1 -1 7.5 -13t55 -25.5t63.5 -16t63 -2.5q63 0 98 -33
t35 -88q0 -30 -31 -57l-69 -46q4 -3 17.5 -5.5t47.5 -32.5t42.5 -56l16.5 -51q12 -31 28 -31q15 0 35 28t38 88.5t18 118.5q0 51 -13 91.5t-45 70.5zM377 482q-24 0 -35.5 -21.5t-11.5 -45.5q0 -18 12 -30t31 -12q22 0 46 12t20 29q-6 26 -21.5 47t-40.5 21zM468 198
q-13 33 -65 64t-60 46q-5 -14 -9 -59t-10.5 -71t-62.5 -38.5t-67 -19.5q34 -48 61 -67t100 -19q75 0 110.5 18t71.5 63q-32 22 -42 33.5t-27 49.5z" />
    <glyph glyph-name="copyright" unicode="&#xa9;" horiz-adv-x="735" 
d="M356 1q-166 0 -271 112t-105 245q0 134 107 264t256 130q10 1 15 1q23 0 40 -5t17 -13q0 -7 -18.5 -14t-88 -17t-163 -104t-93.5 -217q0 -136 94 -252.5t222 -116.5q131 0 222 94t91 226q0 123 -43 212t-93 114t-50 45q0 6 10 6q9 0 21.5 -4t63 -30t108.5 -107.5
t58 -195.5q0 -10 -1 -21.5l-6 -72t-117.5 -170t-275.5 -109.5zM367 128q-117 0 -167.5 73t-50.5 176q0 89 60.5 147t169.5 58q72 0 112 -34.5t40 -73.5q0 -31 -25 -37q-19 -6 -56 46.5t-70 52.5q-63 0 -91 -47.5t-28 -142.5q0 -64 25 -111.5t81 -47.5q42 0 77 27l69 60
q5 0 15 -10t10 -34q0 -40 -42 -71t-129 -31z" />
    <glyph glyph-name="trademark" unicode="&#x2122;" horiz-adv-x="1000" 
d="M875 469q-20 0 -28.5 48.5t-15.5 63.5t-14 34q-12 24 -40 24q5 12 8.5 38.5t14.5 46t45 19.5q21 0 35.5 -14t18 -40t3.5 -47q0 -52 -8.5 -95.5t-18.5 -77.5zM694 463q-28 0 -36 14t-8 51v28t1 31q7 -14 14 -17.5t22 -3.5h12q22 -4 28 -4q7 0 13 9q-12 -23 -17 -65.5
t-29 -42.5zM560 608q-29 -21 -39.5 -40t-16.5 -46t-7.5 -31.5l-2.5 -7.5q-2 0 -4.5 53.5t-8.5 126.5q0 49 12 69.5t34 20.5q20 0 41.5 -16.5t28 -33l13.5 -33t7 -36.5q-12 -2 -21 -4t-36 -22zM282 560q0 -42 -5 -69.5t-25 -27.5q-15 0 -20.5 13.5t-5.5 41.5v23t1 25
q-3 36 -6 66.5t-16 47t-17.5 23.5t-4.5 14q0 11 16.5 17.5t58.5 6.5q41 0 60.5 -8.5t19.5 -20.5q0 -17 -23 -30t-28 -38.5t-5 -83.5z" />
    <glyph glyph-name="acute" unicode="&#xb4;" horiz-adv-x="333" 
d="M264 675q28 19 28 36q0 12 -11 20t-26 10q-12 2 -31.5 -4.5t-32.5 -21.5l-45.5 -71t-19.5 -39q0 -11 24 -11q20 0 58 34.5t56 46.5z" />
    <glyph glyph-name="dieresis" unicode="&#xa8;" horiz-adv-x="333" 
d="M76 711q22 0 32.5 -12.5t10.5 -30.5q0 -17 -9.5 -29.5t-27.5 -12.5q-25 0 -39 13t-14 32q0 16 12 28t35 12zM268 711q21 -7 31.5 -19.5t10.5 -28.5t-10.5 -26.5t-28.5 -10.5q-24 0 -37.5 15.5t-13.5 35.5q0 37 33 37q7 0 15 -3z" />
    <glyph glyph-name="notequal" unicode="&#x2260;" horiz-adv-x="590" 
d="M357 296q0 -54 23.5 -69t68.5 -15h29q20 0 34 -14t14 -31q0 -16 -16.5 -28t-49.5 -12q-81 0 -127 -10.5t-79.5 -44.5t-60.5 -34q-28 0 -42 35q-16 34 -56.5 50.5t-40.5 39.5q0 19 54.5 37t79.5 30q33 14 52.5 33.5t19.5 38.5q-4 43 -20 52t-71 9q-54 0 -83.5 10t-25.5 32
q6 25 30.5 40t72.5 15q75 0 107 2.5t67 32t60 29.5q27 0 49.5 -26t57 -44t34.5 -49q0 -21 -90.5 -38t-90.5 -71z" />
    <glyph glyph-name="AE" unicode="&#xc6;" horiz-adv-x="1000" 
d="M753 647q-90 0 -144.5 -36.5t-54.5 -84.5q5 -43 51 -76t112 -33h41.5t40.5 1q56 0 82.5 -8.5t23.5 -35.5q0 -23 -23 -30t-75 -7h-41t-43 1h-12q-79 0 -112 -34t-33 -84v-12q0 -47 30 -81.5t68.5 -39.5t53.5 -6t30 -1q31 0 79 2.5t51 2.5q36 0 58.5 -11t22.5 -36
q0 -21 -24.5 -35t-72.5 -14h-31q-16 3 -42 7t-72 4q-43 0 -103.5 -6.5t-71.5 -6.5q-35 4 -56 24t-41.5 62.5t-60.5 67t-85 24.5q-42 0 -76.5 -20t-56 -60.5t-50.5 -64.5t-53 -24q-33 0 -33 44q0 32 29 103l64.5 159t62.5 168.5t37 146.5t54 90t131 24q32 0 85.5 -4t57.5 -4
h16q12 2 17 2q32 0 86.5 3t70.5 3h42q97 0 127.5 -13.5t30.5 -40.5q2 -19 -16.5 -26t-57.5 -7q-26 0 -69.5 1.5t-44.5 1.5zM402 622q-35 0 -53 -33l-62 -148q-37 -63 -37 -114q0 -36 22.5 -58t69.5 -22q94 0 101.5 55t7.5 181q0 10 1 32.5t1 33.5q0 34 -10.5 53.5
t-40.5 19.5z" />
    <glyph glyph-name="Oslash" unicode="&#xd8;" horiz-adv-x="780" 
d="M405 353q-160 -219 -160 -241q0 -10 21 -28.5t51 -31.5t66 -13q86 0 164 87.5t78 226.5q0 57 -7.5 89t-25.5 84q-12 9 -24 9q-30 0 -163 -182zM378 369q76 101 101.5 141.5t25.5 61.5q0 12 -8 26q-34 26 -64 33t-75 7h-15q-92 0 -150 -85.5t-58 -187.5q0 -74 11.5 -116
t41.5 -84q7 -7 15 -7q16 0 175 211zM32 347q0 150 91.5 265.5t271.5 115.5h27.5t26.5 1q33 0 55 -5.5t53 -27.5q10 -11 21 -11q16 0 44.5 29.5t41.5 29.5q7 0 12.5 -4.5t5.5 -11.5q0 -11 -16.5 -43t-16.5 -47q0 -13 27.5 -40.5t45.5 -94.5t18 -186q0 -333 -357 -333
q-60 0 -97 8t-77 32q-17 6 -46 -43.5t-45 -49.5q-7 0 -18.5 9t-11.5 25q0 18 27.5 52.5t27.5 46.5q0 6 -3 11q-55 48 -81.5 118t-26.5 154z" />
    <glyph glyph-name="infinity" unicode="&#x221e;" horiz-adv-x="630" 
d="M277 337q0 -27 -25.5 -41t-60.5 -14q-15 0 -40 5t-47.5 21t-22.5 44q0 26 23 38.5t60 18.5q16 2 31.5 -0.5t23.5 -5.5q9 7 -8.5 21t-42 19.5t-30.5 5.5q-44 0 -76.5 -32.5t-32.5 -76.5t38.5 -69t93.5 -32q35 -4 79.5 34t76.5 38h19q15 0 28 -3l34 -8q-1 1 -21 12.5
t-20 36.5q0 30 34 41t79 11q39 0 55.5 -18.5t16.5 -52.5q0 -19 -19 -31t-47 -17q-6 -1 -50 10q-3 -2 -5 -4l26 -29t28 -18.5t27 -4.5q36 0 64 27t31 49.5t3 34.5q0 43 -27.5 71.5t-79.5 28.5t-96.5 -33.5t-76.5 -33.5q-11 0 -34 6t-30 6q-8 0 -8 -6q0 -11 14 -25t15 -24z
" />
    <glyph glyph-name="plusminus" unicode="&#xb1;" horiz-adv-x="585" 
d="M280 267q-29 55 -59.5 94t-67.5 39q-32 0 -58.5 12t-26.5 25q0 10 19 16.5t60 6.5q85 0 104 63.5t41 63.5q12 0 36 -60.5t91 -60.5q38 0 56.5 -9t18.5 -23q0 -15 -21 -27.5t-54 -12.5q-41 0 -76 -41zM238 26q-15 -5 -37 -8t-40 -3q-42 0 -69 11.5t-24 30.5
q4 22 25.5 32.5t59.5 10.5q19 0 30 -1q47 0 117 -5t94 -5h25l23 4t16 1q22 0 38.5 -11t16.5 -25q0 -28 -40.5 -35t-63.5 -7q-27 0 -68 8.5t-57 8.5q-13 0 -21 -1t-25 -6z" />
    <glyph glyph-name="yen" unicode="&#xa5;" 
d="M447 393q-26 -4 -44.5 -22.5t-26.5 -39.5t-8 -39q0 -33 18 -62l-30.5 -37.5t-11.5 -47.5q0 -48 -17 -90.5t-50 -42.5q-32 0 -40 33t-8 88q0 30 -20.5 54.5l-40.5 48.5q18 13 24.5 31t6.5 48q0 27 -23.5 50t-55.5 28q3 15 5 27t2 26q0 27 -6.5 49t-25 56t-29 59t-10.5 44
q0 28 28 42q17 4 37.5 -18t37 -53.5t49.5 -113t69 -81.5q38 0 82 71t70 158q17 29 29.5 44t24.5 11q21 -3 30.5 -12.5t9.5 -22.5q0 -14 -6 -27.5t-23.5 -48.5t-32 -98t-14.5 -112z" />
    <glyph glyph-name="partialdiff" unicode="&#x2202;" horiz-adv-x="611" 
d="M239 603q-9 6 -18 6q-17 0 -51.5 -31.5t-53.5 -31.5q-8 0 -23 8t-26 18.5t-11 28.5q0 12 12.5 15.5t32.5 3.5h27q24 3 24 20q0 14 -27 26.5t-23 26.5q1 4 10.5 17.5t25.5 13.5q13 0 55 -21.5t67 -18.5l96 50q10 0 24.5 -6.5t27 -18.5t12.5 -31q0 -11 -8.5 -15.5
t-24.5 -4.5q-7 0 -23 1t-23 1q-15 0 -21.5 -2.5t-8.5 -12.5q-1 -10 69.5 -55.5t109 -93.5t59 -108t20.5 -124q0 -70 -19.5 -127t-57.5 -91.5t-87.5 -51.5t-102.5 -17q-55 0 -103 16.5t-85.5 50.5t-58 93t-20.5 127q0 70 19.5 127t47.5 82.5t99.5 55.5t68.5 42
q-4 15 -14 21.5t-17 10.5zM182 385q-10 -19 -18 -47.5t-8 -58.5q0 -28 10.5 -50.5t35.5 -70.5q18 -31 44.5 -46t55.5 -15q34 0 70.5 14.5t54.5 47.5t27 54.5t9 50.5q0 24 -6 42.5t-30 63.5q-18 31 -66 53.5t-79 22.5q-29 0 -55 -14t-45 -47z" />
    <glyph glyph-name="Sigma" unicode="&#x3a3;" horiz-adv-x="722" 
d="M296 409q20 0 31 -9t11 -34q-4 -11 -12.5 -20.5t-35.5 -9.5q-4 0 -20.5 1t-26.5 1q-35 0 -47.5 -9t-12.5 -25q0 -30 4.5 -58.5l11.5 -72t33.5 -62t70.5 -18.5q10 0 29.5 1t28.5 1q72 0 138.5 59.5t66.5 206.5q0 162 -60.5 226.5t-193.5 64.5q-69 0 -90 -17t-27.5 -51.5
t-6.5 -51.5q0 -12 1 -43t1 -45q0 -21 18 -29t46 -8q10 0 25 1t17 1zM24 329q-18 0 -30 14t-12 32q0 15 10 24.5t32 9.5q25 0 37 10t12 30v34q0 110 -7 138.5t-7 41.5q0 35 22 55t46 23t34.5 3h17.5q29 0 101 -4t99 -4q49 0 119 -30t126.5 -109.5t56.5 -216.5
q0 -212 -77.5 -294t-218.5 -82q-79 0 -114 -1t-64 -2q-17 0 -54.5 4t-63 30.5t-25.5 89.5q0 18 4 79.5t4 90.5q0 21 -9.5 28t-24.5 7q-11 -1 -14 -1z" />
    <glyph glyph-name="product" unicode="&#x220f;" horiz-adv-x="611" 
d="M95 632q0 42 16.5 67.5t56.5 29.5q36 0 45 -21t9 -64q0 -8 -6.5 -73t-6.5 -89q1 -11 5 -17.5t14 -6.5q14 0 37.5 12.5t31.5 15t19 2.5q13 0 22.5 -6.5t9.5 -13.5q0 -10 -36 -30t-44 -30t-27 -27t-27 -37l2 -165q0 -36 26.5 -60.5t64.5 -24.5q14 0 58.5 2t55.5 2
q28 0 51 -2t43.5 -8t43.5 -12q20 -8 20 -31q0 -14 -29.5 -25t-79.5 -11q-47 5 -117 8.5t-179 3.5q-50 0 -64.5 27t-14.5 82v147q-7 8 -19 8h-21q-12 2 -36 -7.5t-28 -9.5q-6 0 -6 7q0 40 43 65t52 40l15 24v228z" />
    <glyph glyph-name="pi" unicode="&#x3c0;" horiz-adv-x="278" 
d="M85 632q0 51 7.5 72t45.5 25q36 0 45 -21t9 -64q0 -7 -4 -72t-4 -90q0 -9 0.5 -18.5t9.5 -9.5q10 0 25 8t23 8q7 0 11.5 -8t6.5 -12q6 -11 -4.5 -22.5l-20.5 -22.5q-7 -11 -25.5 -26.5t-25.5 -34.5l2 -165q0 -112 -6.5 -135t-35.5 -23q-37 0 -48.5 15t-11.5 49v21.5
t1 23.5v147q-8 9 -22 9q-11 -1 -18 -1t-21 -7t-18 -7q-6 0 -6 9q0 34 15 51l55 49l15 24v228z" />
    <glyph glyph-name="ordfeminine" unicode="&#xaa;" 
d="M149 692q-22 0 -45.5 -19.5t-32.5 -18.5q-21 3 -21 12q0 10 21 24.5t49.5 21.5t56.5 7q67 0 86.5 -48.5t19.5 -146.5q0 -71 -6.5 -83.5t-27.5 -15.5q-8 -1 -26 10.5t-27 11.5q-4 0 -12 -2q-29 -17 -48 -25.5t-38 -8.5q-28 -3 -51.5 14t-23.5 51q0 43 21.5 66.5t40.5 27.5
t26 4t7 -4q-2 -6 -6 -8q-16 -13 -22 -27.5t-6 -31.5q0 -19 23 -38t47 -19q8 0 25.5 6t29.5 25t12 43q0 27 -4.5 35.5t-16.5 17t-24 6.5q0 1 1 3q12 11 23 22.5t11 25.5q0 27 -15.5 44.5t-46.5 17.5zM320 346q0 -13 -5 -17t-11 -6h-267q-6 0 -11.5 2.5t-5.5 14.5t5 15t12 5
h267q7 -2 11.5 -5t4.5 -9z" />
    <glyph glyph-name="ordmasculine" unicode="&#xba;" horiz-adv-x="610" 
d="M198 409q-96 0 -135 48t-39 106q0 53 37 102t107 49q68 0 114.5 -35.5t46.5 -105.5q0 -67 -44 -115.5t-87 -48.5zM178 694q-39 0 -69.5 -35.5t-30.5 -88.5t29 -92t65 -39q45 0 71 37.5t26 90.5q0 52 -26 89.5t-65 37.5zM320 351q0 -13 -5 -17t-11 -6h-267q-6 0 -11.5 2.5
t-5.5 14.5t5 15t12 5h267q7 -2 11.5 -5t4.5 -9z" />
    <glyph glyph-name="ae" unicode="&#xe6;" horiz-adv-x="890" 
d="M778 279q-17 0 -56 -6.5t-50 -6.5q-21 0 -39 7q74 30 94.5 42.5t20.5 48.5q0 47 -29.5 78t-97.5 31q-66 0 -93.5 -34.5t-27.5 -80.5q0 -35 30 -60t67 -25q-52 -5 -77.5 -29.5t-25.5 -91.5q5 -39 42.5 -70.5t90.5 -31.5q26 3 77.5 28.5t68.5 25.5q9 0 16 -5.5t12.5 -13.5
t5.5 -16q0 -31 -65.5 -55.5t-132.5 -24.5t-115 34t-73 45q-80 -52 -116 -68.5t-120 -16.5q-68 0 -122 40t-54 92q0 9 8.5 46t70 93t164.5 56q57 0 85.5 21t28.5 52q0 32 -27 58t-69 26q-49 0 -105 -32.5t-69 -32.5q-16 0 -30.5 14.5t-14.5 28.5q0 33 68.5 64t150.5 31
q80 0 116.5 -23l71.5 -44q23 8 58.5 34.5t122.5 26.5q122 0 164 -48.5t49.5 -99.5t7.5 -63q0 -28 -11.5 -36t-37.5 -8h-33zM252 249q-56 -12 -85.5 -36t-29.5 -97q0 -32 23 -49t59 -17q51 0 97.5 28.5t55 65.5t8.5 61q0 30 -13 42t-43 12q-24 0 -43 -4z" />
    <glyph glyph-name="oslash" unicode="&#xf8;" horiz-adv-x="780" 
d="M300 223l-61.5 -87.5t-29.5 -61.5q0 -10 10 -19.5t25.5 -14.5t31.5 -5q26 0 49.5 9t56.5 27.5t55.5 73t22.5 108.5q0 20 0.5 40t1.5 40q0 11 -2 21.5t-8 26.5q-9 18 -19 18q-14 0 -133 -176zM273 239q120 170 120 194q0 9 -13.5 20.5l-33.5 28.5q-9 6 -43 6h-17
q-85 0 -123 -69.5t-38 -148.5v-17q0 -39 5.5 -68.5t27.5 -59.5q13 -11 20 -11q8 0 95 125zM27 222q0 139 67.5 225t200.5 86q39 0 58 -4q24 -7 42 -11.5t26 -4.5q21 0 41 22t28 22t14.5 -5.5t6.5 -10.5q0 -3 -13.5 -22t-13.5 -28q0 -7 5.5 -14.5t18.5 -14.5q34 -40 51 -71
t17 -86q-1 -12 -1 -18v-10q-13 -127 -76 -210t-161 -83q-64 0 -85 3.5t-59 26.5q-14 5 -39 -39t-37 -44q-7 0 -15 5.5t-8 15.5t22 40t22 45q0 8 -4 13q-53 47 -80.5 92.5t-27.5 79.5z" />
    <glyph glyph-name="questiondown" unicode="&#xbf;" horiz-adv-x="611" 
d="M201 204q35 23 54.5 46l42.5 51q17 -7 27 -10.5t10 -21.5q0 -7 -3.5 -20.5t-25 -50.5t-54.5 -70.5t-51 -54t-18 -57.5q0 -55 38.5 -96.5t88.5 -36.5q49 0 91 36l84 79q21 0 32 -12t11 -33q0 -44 -54.5 -84t-157.5 -40q-104 0 -173 52.5t-69 141.5q0 79 21.5 101t105.5 80
zM302 541q32 0 44.5 -9t12.5 -25q0 -8 -1 -16.5l-2 -16.5q0 -32 -15 -46t-39 -14q-15 0 -38 21.5t-23 38.5q0 22 17.5 44.5t43.5 22.5z" />
    <glyph glyph-name="exclamdown" unicode="&#xa1;" horiz-adv-x="335" 
d="M148 508q21 0 33 -13t12 -30t-10.5 -29t-31.5 -12q-28 0 -44 13t-16 31q0 16 14.5 28t42.5 12zM148 -166q-39 0 -54.5 42t-15.5 109q0 47 3.5 77.5t10.5 86.5t13 114q9 24 37 24q31 0 35 -49.5t9.5 -97.5l11 -99t5.5 -81q0 -58 -12.5 -92t-42.5 -34z" />
    <glyph glyph-name="logicalnot" unicode="&#xac;" horiz-adv-x="667" 
d="M431 201q-19 0 -67 2t-51 2q-54 0 -82.5 -12t-28.5 -47v-36q0 -48 -5 -78.5t-44 -30.5h-13q-26 0 -37 12.5t-11 60.5q0 36 -6 115t-6 133q0 57 4 112.5t4 79.5q0 27 -1.5 42t-2.5 31l2 31q7 75 13 91.5t58 16.5q31 0 50 -47.5t212 -47.5q72 0 139 -41.5t67 -127.5
q0 -13 -1 -20q0 -122 -39.5 -181.5t-153.5 -59.5zM334 540q-68 0 -97.5 -13t-29.5 -41v-97q0 -110 121 -110q69 0 125 39t56 99q0 53 -47 88t-128 35z" />
    <glyph glyph-name="radical" unicode="&#x221a;" horiz-adv-x="611" 
d="M381 9q-59 0 -91 27t-60 27q-34 0 -51 -33t-17 -79q0 -14 1 -23.5t1.5 -19t0.5 -16.5q0 -47 -11.5 -77t-38.5 -30q-34 0 -44.5 27.5t-10.5 93.5v696q0 82 9.5 108t63.5 26q23 0 31 -23t8 -65q0 -22 -1 -44.5l-2 -44.5q0 -37 6 -55.5t25 -18.5t58 28.5t54 34.5t75 6
q71 0 129 -76.5t58 -184.5q0 -112 -56.5 -198t-136.5 -86zM266 499q-44 -13 -76.5 -88.5t-32.5 -147.5q0 -70 32.5 -128t62 -66.5t38.5 -8.5q58 0 117 63.5t59 151.5q0 96 -56 161.5t-119 65.5q-13 0 -25 -3z" />
    <glyph glyph-name="florin" unicode="&#x192;" 
d="M388 573q0 -51 20.5 -86.5t21.5 -40.5q2 -13 -35.5 -31.5t-61.5 -107.5l-72 -381q-18 -64 -71.5 -96.5t-103.5 -32.5q-34 0 -37 14q-5 19 51 39t70 100l66 363q3 9 4 19t1 20q0 39 -25 60t-22 28q21 18 43.5 42t28.5 83.5t58 112t112 52.5q46 0 60 -4t7 -14
q-53 -44 -84 -78t-31 -61z" />
    <glyph glyph-name="ellipsis" unicode="&#x2026;" horiz-adv-x="1000" 
d="M814 23q-13 10 -20 22t-7 21q0 18 20.5 30t54.5 12q27 -14 27 -42q0 -22 -13.5 -37.5t-33.5 -15.5q-15 0 -28 10zM505 119q24 0 39.5 -17.5t15.5 -39.5q0 -17 -10.5 -28.5t-32.5 -11.5q-29 0 -49 13t-20 31q0 14 13.5 27.5t43.5 25.5zM172 123q22 2 37.5 -15.5
t15.5 -41.5q0 -20 -13 -33t-40 -13q-28 0 -43 14.5t-15 34.5q0 21 15.5 37.5t42.5 16.5z" />
    <glyph glyph-name="nonbreakingspace" unicode="&#xa0;" horiz-adv-x="500" 
 />
    <glyph glyph-name="Agrave" unicode="&#xc0;" horiz-adv-x="722" 
d="M384 153q-131 0 -152.5 -7.5t-45 -49.5t-39.5 -65.5t-36.5 -26.5t-28.5 -3q-36 0 -36 36q0 15 5.5 32t22.5 50.5t33 74l90 237.5l58 191q40 106 105 106q54 0 88.5 -46t61 -129.5l46 -149t69 -191.5t49.5 -168t-36 -42q-38 0 -95.5 75.5t-158.5 75.5zM378 534
q-48 0 -75.5 -66t-27.5 -128q0 -53 18.5 -71.5t84.5 -18.5q49 0 70.5 13.5t21.5 44.5q0 14 -4.5 34t-14.5 47q-13 63 -25.5 104t-47.5 41zM269 866q-28 19 -28 36q0 12 11 20t26 10q12 2 31.5 -4.5t32.5 -21.5l45.5 -71t19.5 -39q0 -11 -24 -11q-20 0 -58 34.5t-56 46.5z
" />
    <glyph glyph-name="Atilde" unicode="&#xc3;" horiz-adv-x="722" 
d="M384 153q-131 0 -152.5 -7.5t-45 -49.5t-39.5 -65.5t-36.5 -26.5t-28.5 -3q-36 0 -36 36q0 15 5.5 32t22.5 50.5t33 74l90 237.5l58 191q40 106 105 106q54 0 88.5 -46t61 -129.5l46 -149t69 -191.5t49.5 -168t-36 -42q-38 0 -95.5 75.5t-158.5 75.5zM378 534
q-48 0 -75.5 -66t-27.5 -128q0 -53 18.5 -71.5t84.5 -18.5q49 0 70.5 13.5t21.5 44.5q0 14 -4.5 34t-14.5 47q-13 63 -25.5 104t-47.5 41zM354 839q77 -28 117 -28q26 0 36 10t6 24q-6 24 -28 24q-9 0 -29 -1.5t-25 -1.5q-15 0 -28.5 1t-30 5t-36.5 4q-47 0 -85.5 -20
t-38.5 -33q0 -5 7 -5t18.5 19.5t38.5 19.5q13 0 32.5 -4.5t45.5 -13.5z" />
    <glyph glyph-name="Otilde" unicode="&#xd5;" horiz-adv-x="778" 
d="M383 -16q-169 0 -260 104t-91 259q0 150 91.5 265.5t271.5 115.5q139 0 242 -94t103 -317q0 -333 -357 -333zM358 638h-15q-92 0 -150 -85.5t-58 -187.5q0 -161 78 -243.5t170 -82.5q86 0 164 87.5t78 226.5q0 137 -83.5 211t-183.5 74zM379 839q77 -28 117 -28
q26 0 36 10t6 24q-6 24 -28 24q-9 0 -29 -1.5t-25 -1.5q-15 0 -28.5 1t-30 5t-36.5 4q-47 0 -85.5 -20t-38.5 -33q0 -5 7 -5t18.5 19.5t38.5 19.5q13 0 32.5 -4.5t45.5 -13.5z" />
    <glyph glyph-name="OE" unicode="&#x152;" horiz-adv-x="1000" 
d="M814 -10q-38 0 -77 -1l-77 -2q-38 0 -70 3q-31 6 -74.5 21t-58.5 15q-26 0 -72.5 -18t-72.5 -18q-51 0 -112.5 24t-113.5 103.5t-52 229.5q0 154 43.5 238t103.5 113.5t119 29.5q39 0 95 -18t81 -18q24 0 70.5 18t128.5 18q64 0 95.5 -1t59.5 -2q11 0 30.5 1.5t23.5 1.5
q25 0 53.5 -19.5t28.5 -39.5q0 -14 -17.5 -23t-55.5 -9q-31 0 -61.5 1l-60.5 2q-77 0 -116.5 -21t-39.5 -85q0 -72 19.5 -97.5t53.5 -25.5h15q10 2 20 3t55.5 9.5t78.5 8.5q20 0 40.5 -16.5t20.5 -34.5t-24 -29t-80 -11h-61q-89 0 -110.5 -19t-21.5 -108q0 -102 23.5 -123.5
t133.5 -21.5q13 0 45 1t48 1q45 0 67 -5t22 -22q4 -36 -31 -45t-115 -9zM355 674q-85 0 -145.5 -86.5t-60.5 -228.5q0 -139 57.5 -220.5t135.5 -81.5q75 0 116.5 74t41.5 228q0 315 -145 315z" />
    <glyph glyph-name="oe" unicode="&#x153;" horiz-adv-x="945" 
d="M706 261q-91 0 -126.5 -23t-30.5 -55q6 -39 43.5 -80t101.5 -41q46 0 93 31.5t58 31.5q12 0 24 -9t12 -22q0 -32 -60.5 -65.5t-132.5 -33.5q-69 0 -118.5 28t-63.5 26q-15 -2 -101.5 -34t-128.5 -32q-79 0 -169.5 80.5t-90.5 191.5q0 126 70.5 205t195.5 79
q24 0 93.5 -18t112.5 -18q25 2 100 25.5t100 23.5q82 0 150 -73t68 -145q0 -47 -23.5 -60.5t-82.5 -13.5h-39.5t-42.5 1h-12zM688 479q-78 0 -108.5 -29.5t-30.5 -73.5q0 -42 25.5 -57t137.5 -15q48 0 70 19.5t22 49.5q0 10 -2.5 29.5t-42.5 48t-71 28.5zM276 485
q-60 0 -105.5 -67.5t-45.5 -162.5q0 -94 42.5 -143.5t121.5 -49.5q75 0 113 55.5t38 149.5q0 89 -49.5 153.5t-114.5 64.5z" />
    <glyph glyph-name="endash" unicode="&#x2013;" horiz-adv-x="500" 
d="M204 128q8 -38 35 -44.5t84.5 -12t74.5 -16.5t17 -22q0 -20 -47 -20q-26 0 -112 -7.5t-115 -7.5q-26 0 -51 4.5t-43 19.5t-18 40q0 19 9.5 39.5t43.5 63l70 87.5t54 69.5t31.5 48t13.5 38.5q0 23 -25.5 37.5t-66.5 21t-67 19.5t-26 25q0 16 48 16l148 13t94 6
q34 0 61.5 -14t27.5 -41t-37.5 -70l-92 -105.5t-86 -111t-25.5 -76.5zM159 665q23 -32 41.5 -46t48.5 -14q33 0 53.5 15t44.5 42t35.5 44.5t11.5 26.5q0 12 -32 12q-20 0 -28.5 -9.5t-33.5 -41.5t-46 -32q-18 0 -45 35.5t-39 44t-41 8.5q-14 0 -14 -11q0 -13 16.5 -36.5
t27.5 -37.5z" />
    <glyph glyph-name="emdash" unicode="&#x2014;" horiz-adv-x="611" 
d="M369 359q-72 -78 -113.5 -132t-37.5 -79q5 -30 41.5 -45.5t121.5 -15.5q93 0 128.5 -3t35.5 -39q0 -28 -45 -38.5t-107 -10.5q-13 0 -52.5 6.5t-55.5 6.5q-31 0 -81 -6.5t-65 -6.5q-65 0 -90 13t-25 72q0 52 72 139.5l140 169.5q77 104 97.5 137t23.5 56q5 24 -14.5 40
t-60.5 21t-76.5 8.5t-78.5 3.5q-33 0 -51.5 11t-18.5 26q0 29 58 29q44 4 85.5 5t88.5 1h20q48 0 103.5 -3t99 -9.5t43.5 -49.5v-16q-3 -9 -8.5 -28t-67 -114.5t-110.5 -148.5zM214 856q23 -32 41.5 -46t48.5 -14q33 0 53.5 15t44.5 42t35.5 44.5t11.5 26.5q0 12 -32 12
q-20 0 -28.5 -9.5t-33.5 -41.5t-46 -32q-18 0 -45 35.5t-39 44t-41 8.5q-14 0 -14 -11q0 -13 16.5 -36.5t27.5 -37.5z" />
    <glyph glyph-name="quotedblleft" unicode="&#x201c;" horiz-adv-x="500" 
d="M284 561q0 50 18 72l61 49q3 -12 35 -57t32 -83q0 -24 -22 -38.5t-52 -14.5t-51 18t-21 54zM65 561q0 75 8.5 93.5t46.5 27.5l65.5 -78.5t24.5 -61.5q0 -24 -22 -38.5t-51 -14.5q-30 0 -51 18t-21 54z" />
    <glyph glyph-name="quotedblright" unicode="&#x201d;" horiz-adv-x="500" 
d="M221 658q0 -60 -58 -86t-63 -35q-17 61 -21 83t-4 56q0 24 22 39t52 15t51 -18t21 -54zM440 658q0 -66 -23 -78t-98 -31q-8 27 -16 57t-8 70q0 24 22 39t51 15q30 0 51 -18t21 -54z" />
    <glyph glyph-name="quoteleft" unicode="&#x2018;" horiz-adv-x="280" 
d="M65 561q0 75 8.5 93.5t46.5 27.5l65.5 -78.5t24.5 -61.5q0 -24 -22 -38.5t-51 -14.5q-30 0 -51 18t-21 54z" />
    <glyph glyph-name="quoteright" unicode="&#x2019;" horiz-adv-x="280" 
d="M221 658q0 -60 -58 -86t-63 -35q-17 61 -21 83t-4 56q0 24 22 39t52 15t51 -18t21 -54z" />
    <glyph glyph-name="divide" unicode="&#xf7;" horiz-adv-x="585" 
d="M284 457q19 0 38.5 -20.5t19.5 -41.5q0 -12 -10 -20.5t-30 -8.5q-29 0 -45 15t-16 35q0 16 11.5 28.5t31.5 12.5zM242 202q-15 -5 -37 -8t-40 -3q-42 0 -69 11.5t-24 29.5q7 44 85 44q19 0 30 -1q47 0 117 -5t94 -5h25l23 4t16 1q22 0 38.5 -11t16.5 -25q0 -28 -40.5 -35
t-63.5 -7q-27 0 -68 8.5t-57 8.5q-13 0 -21 -1t-25 -6zM296 3q-27 0 -41.5 12.5t-14.5 30.5q0 21 17 37.5t45 16.5q12 0 27 -20.5t15 -39.5q0 -17 -11 -27t-37 -10z" />
    <glyph glyph-name="ydieresis" unicode="&#xff;" horiz-adv-x="556" 
d="M326 -7q-36 -118 -71.5 -162t-91.5 -44q-26 0 -39.5 10.5t-13.5 25.5t11.5 28.5t43 23.5t45 31.5t13.5 68.5q0 28 -47 153.5t-53.5 153.5t-38 112.5t-31.5 107.5q0 20 11.5 30.5t37.5 10.5q44 0 59 -61l28.5 -117.5t30.5 -121.5q20 -63 51 -63q33 0 56.5 54t43 147
t31 124.5t51.5 31.5q49 0 49 -46q0 -31 -27 -84.5t-70.5 -173.5t-78.5 -240zM188 711q22 0 32.5 -12.5t10.5 -30.5q0 -17 -9.5 -29.5t-27.5 -12.5q-25 0 -39 13t-14 32q0 16 12 28t35 12zM380 711q21 -7 31.5 -19.5t10.5 -28.5t-10.5 -26.5t-28.5 -10.5q-24 0 -37.5 15.5
t-13.5 35.5q0 37 33 37q7 0 15 -3z" />
    <glyph glyph-name="Ydieresis" unicode="&#x178;" horiz-adv-x="667" 
d="M515 509q-43 -78 -63.5 -119t-36 -97.5t-15.5 -122.5q0 -101 -15 -129t-51 -28q-32 0 -43.5 28t-11.5 105q0 215 -76.5 310.5t-106 146.5t-29.5 85q0 38 43 38q37 0 65 -53l53 -116.5t54 -94t58 -38.5q26 4 54 52l37 63l56 122q30 54 70 54q8 0 26.5 -3.5t18.5 -28.5
q0 -27 -32 -81zM243 902q22 0 32.5 -12.5t10.5 -30.5q0 -17 -9.5 -29.5t-27.5 -12.5q-25 0 -39 13t-14 32q0 16 12 28t35 12zM435 902q21 -7 31.5 -19.5t10.5 -28.5t-10.5 -26.5t-28.5 -10.5q-24 0 -37.5 15.5t-13.5 35.5q0 37 33 37q7 0 15 -3z" />
    <glyph glyph-name="divisionslash" unicode="&#x2215;" horiz-adv-x="167" 
d="M250 715h87l-425 -735h-85z" />
    <glyph glyph-name="uniF001" unicode="&#xf001;" horiz-adv-x="611" 
d="M224 581q0 -25 38.5 -43t38.5 -41q0 -11 -53.5 -53.5t-53.5 -134.5q0 -43 6 -91t6 -121q0 -44 -11 -67t-37 -23q-30 0 -45.5 18.5t-15.5 65.5q0 56 3 160.5t3 111.5q0 42 -24 80.5t-24 53.5q0 35 24 54.5t31 69t46 77.5t73 28q54 0 82.5 -15t47.5 -32q-45 -3 -90 -18.5
t-45 -79.5zM421 675q15 11 33.5 21.5t37.5 10.5q26 0 26 -32q0 -24 -7 -34.5t-19 -10.5q-18 0 -36.5 14.5t-34.5 30.5zM482 3q-26 0 -37 15.5t-11 51.5q0 4 6 61t6 96q0 44 -9 113t-9 99q0 32 15.5 55.5t38.5 23.5q24 0 39 -22t15 -69v-339q0 -85 -54 -85z" />
    <glyph glyph-name="uniF002" unicode="&#xf002;" horiz-adv-x="611" 
d="M224 581q0 -25 38.5 -43t38.5 -41q0 -11 -53.5 -53.5t-53.5 -134.5q0 -43 6 -91t6 -121q0 -44 -11 -67t-37 -23q-30 0 -45.5 18.5t-15.5 65.5q0 56 3 160.5t3 111.5q0 42 -24 80.5t-24 53.5q0 35 24 54.5t31 69t46 77.5t73 28q54 0 82.5 -15t47.5 -32q-45 -3 -90 -18.5
t-45 -79.5zM482 3q-26 0 -37 15.5t-11 51.5q0 4 6 61t6 96q0 26 2.5 106.5t2.5 106.5q0 91 -8 151t-30 73q14 13 32.5 26t36.5 13q24 0 39 -22t15 -69v-524q0 -85 -54 -85z" />
    <glyph glyph-name="daggerdbl" unicode="&#x2021;" horiz-adv-x="667" 
d="M515 509q-43 -78 -63.5 -119t-36 -97.5t-15.5 -122.5q0 -101 -15 -129t-51 -28q-32 0 -43.5 28t-11.5 105q0 215 -76.5 310.5t-106 146.5t-29.5 85q0 38 43 38q37 0 65 -53l53 -116.5t54 -94t58 -38.5q26 4 54 52l37 63l56 122q30 54 70 54q8 0 26.5 -3.5t18.5 -28.5
q0 -27 -32 -81zM431 862q28 19 28 36q0 12 -11 20t-26 10q-12 2 -31.5 -4.5t-32.5 -21.5l-45.5 -71t-19.5 -39q0 -11 24 -11q20 0 58 34.5t56 46.5z" />
    <glyph glyph-name="bulletoperator" unicode="&#x2219;" horiz-adv-x="556" 
d="M326 -7q-36 -118 -71.5 -162t-91.5 -44q-26 0 -39.5 10.5t-13.5 25.5t11.5 28.5t43 23.5t45 31.5t13.5 68.5q0 28 -47 153.5t-53.5 153.5t-38 112.5t-31.5 107.5q0 20 11.5 30.5t37.5 10.5q44 0 59 -61l28.5 -117.5t30.5 -121.5q20 -63 51 -63q33 0 56.5 54t43 147
t31 124.5t51.5 31.5q49 0 49 -46q0 -31 -27 -84.5t-70.5 -173.5t-78.5 -240zM376 675q28 19 28 36q0 12 -11 20t-26 10q-12 2 -31.5 -4.5t-32.5 -21.5l-45.5 -71t-19.5 -39q0 -11 24 -11q20 0 58 34.5t56 46.5z" />
    <glyph glyph-name="quotesinglbase" unicode="&#x201a;" horiz-adv-x="667" 
d="M328 -18q-147 0 -199 35.5t-64 68t-12 41.5q0 18 12.5 30.5t31.5 12.5q16 0 34.5 -8.5t56 -43t67 -46t73.5 -11.5q54 0 115 31.5t61 95.5q0 69 -83 91.5l-153 41.5q-117 37 -164.5 76t-47.5 105q0 92 51.5 158t196.5 66q86 0 154.5 -23t87 -60.5t18.5 -53.5
q0 -27 -27 -27q-29 0 -68.5 36t-74.5 46t-90 10q-81 0 -119 -30.5t-38 -78.5q0 -71 62 -95t173.5 -56t174 -64.5t62.5 -111.5q0 -103 -67.5 -169.5t-223.5 -66.5zM242 856q23 -32 41.5 -46t48.5 -14q33 0 53.5 15t44.5 42t35.5 44.5t11.5 26.5q0 12 -32 12q-20 0 -28.5 -9.5
t-33.5 -41.5t-46 -32q-18 0 -45 35.5t-39 44t-41 8.5q-14 0 -14 -11q0 -13 16.5 -36.5t27.5 -37.5z" />
    <glyph glyph-name="quotedblbase" unicode="&#x201e;" horiz-adv-x="556" 
d="M296 -11q-42 0 -85.5 10t-84.5 32q-27 11 -33.5 21.5t-20.5 45.5q-4 16 5.5 25t27.5 9q16 0 32 -6.5t36 -26t44 -31.5t73 -12q52 0 80 23.5t28 60.5q0 46 -41.5 66t-116 30t-127.5 56t-53 96q0 57 49.5 101t143.5 44q91 0 151.5 -17.5t60.5 -66.5q0 -21 -5.5 -30
t-15.5 -9t-22 8t-31 26.5t-34 29.5t-73 11q-39 0 -74 -28.5t-35 -68.5q0 -39 43.5 -58.5t119.5 -19.5q163 0 163 -182q0 -81 -60.5 -110t-144.5 -29zM187 665q23 -32 41.5 -46t48.5 -14q33 0 53.5 15t44.5 42t35.5 44.5t11.5 26.5q0 12 -32 12q-20 0 -28.5 -9.5t-33.5 -41.5
t-46 -32q-18 0 -45 35.5t-39 44t-41 8.5q-14 0 -14 -11q0 -13 16.5 -36.5t27.5 -37.5z" />
    <glyph glyph-name="perthousand" unicode="&#x2030;" horiz-adv-x="1285" 
d="M643 5q-63 38 -95 62.5t-32 82.5q0 69 30 118t63.5 54t47.5 5q40 0 79.5 -11.5t63.5 -31.5q29 -17 41.5 -53.5t12.5 -80.5q0 -58 -43.5 -111t-102.5 -53q-33 0 -65 19zM203 360q-68 0 -119 51t-51 119q0 62 41 105t84.5 49t66.5 6q30 0 52 -5.5t41 -21.5q29 -17 41.5 -53
t12.5 -80q0 -68 -50 -119t-119 -51zM679 265q-40 0 -71.5 -33.5t-31.5 -75.5q0 -40 31 -71t72 -31t72 30t31 72t-31.5 75.5t-71.5 33.5zM197 645q-40 0 -71.5 -33.5t-31.5 -75.5q0 -41 31 -72t72 -31t72 31t31 72q0 42 -31.5 75.5t-71.5 33.5zM1053 5q-63 38 -95 62.5
t-32 82.5q0 69 30 118t63.5 54t47.5 5q40 0 79.5 -11.5t63.5 -31.5q29 -17 41.5 -53.5t12.5 -80.5q0 -58 -43.5 -111t-102.5 -53q-33 0 -65 19zM1089 265q-40 0 -71.5 -33.5t-31.5 -75.5q0 -40 31 -71t72 -31t72 30t31 72t-31.5 75.5t-71.5 33.5zM321 224
q-13 -16 -83.5 -117t-105.5 -101q-9 0 -17.5 7t-15.5 15t-7 14q0 12 34.5 42.5t155 160.5l221.5 246.5t131.5 162t47 59t28.5 13.5q11 0 17 -10t6 -25q0 -17 -6.5 -32t-26 -30t-83.5 -82.5l-170.5 -183.5t-125.5 -139z" />
    <glyph glyph-name="Acircumflex" unicode="&#xc2;" horiz-adv-x="722" 
d="M384 153q-131 0 -152.5 -7.5t-45 -49.5t-39.5 -65.5t-36.5 -26.5t-28.5 -3q-36 0 -36 36q0 15 5.5 32t22.5 50.5t33 74l90 237.5l58 191q40 106 105 106q54 0 88.5 -46t61 -129.5l46 -149t69 -191.5t49.5 -168t-36 -42q-38 0 -95.5 75.5t-158.5 75.5zM378 534
q-48 0 -75.5 -66t-27.5 -128q0 -53 18.5 -71.5t84.5 -18.5q49 0 70.5 13.5t21.5 44.5q0 14 -4.5 34t-14.5 47q-13 63 -25.5 104t-47.5 41zM459 842q9 -14 9 -22t-6 -8q-12 0 -42.5 30.5t-58.5 30.5q-27 0 -43 -22.5t-27.5 -30t-20.5 -7.5q-10 0 -10 11q0 10 16.5 33.5
l39.5 57.5q10 11 44 11q43 0 53 -11q19 -33 46 -73z" />
    <glyph glyph-name="Ecircumflex" unicode="&#xca;" horiz-adv-x="667" 
d="M481 -12q-74 0 -133 2t-139 4q-97 0 -97 73q0 1 3 93t3 161q0 67 -4 133t-8 139q0 83 20 111.5t58 28.5q54 0 148.5 -2.5l166.5 -4.5h23q38 0 50 -10t12 -32q0 -29 -13.5 -35.5t-59.5 -6.5h-42q-21 0 -65.5 3.5t-58.5 3.5q-61 0 -95.5 -23t-34.5 -87q0 -66 49 -88.5
t124 -22.5q14 0 31.5 0.5t37.5 1.5h27q35 0 46.5 -6.5t11.5 -31.5q0 -10 -1.5 -24.5t-15.5 -23.5t-35 -9q-10 0 -28 2t-24 2q-11 0 -42 3t-48 3q-56 0 -88.5 -28.5t-32.5 -110.5q0 -73 49 -98t123 -25q16 0 42 1t34 1q13 0 32.5 1t43.5 3q31 0 47 -10.5t16 -41.5t-24 -40
t-72 -9h-37zM449 842q9 -14 9 -22t-6 -8q-12 0 -42.5 30.5t-58.5 30.5q-27 0 -43 -22.5t-27.5 -30t-20.5 -7.5q-10 0 -10 11q0 10 16.5 33.5l39.5 57.5q10 11 44 11q43 0 53 -11q19 -33 46 -73z" />
    <glyph glyph-name="Aacute" unicode="&#xc1;" horiz-adv-x="722" 
d="M384 153q-131 0 -152.5 -7.5t-45 -49.5t-39.5 -65.5t-36.5 -26.5t-28.5 -3q-36 0 -36 36q0 15 5.5 32t22.5 50.5t33 74l90 237.5l58 191q40 106 105 106q54 0 88.5 -46t61 -129.5l46 -149t69 -191.5t49.5 -168t-36 -42q-38 0 -95.5 75.5t-158.5 75.5zM378 534
q-48 0 -75.5 -66t-27.5 -128q0 -53 18.5 -71.5t84.5 -18.5q49 0 70.5 13.5t21.5 44.5q0 14 -4.5 34t-14.5 47q-13 63 -25.5 104t-47.5 41zM462 866q28 19 28 36q0 12 -11 20t-26 10q-12 2 -31.5 -4.5t-32.5 -21.5l-45.5 -71t-19.5 -39q0 -11 24 -11q20 0 58 34.5t56 46.5z
" />
    <glyph glyph-name="Edieresis" unicode="&#xcb;" horiz-adv-x="667" 
d="M481 -12q-74 0 -133 2t-139 4q-97 0 -97 73q0 1 3 93t3 161q0 67 -4 133t-8 139q0 83 20 111.5t58 28.5q54 0 148.5 -2.5l166.5 -4.5h23q38 0 50 -10t12 -32q0 -29 -13.5 -35.5t-59.5 -6.5h-42q-21 0 -65.5 3.5t-58.5 3.5q-61 0 -95.5 -23t-34.5 -87q0 -66 49 -88.5
t124 -22.5q14 0 31.5 0.5t37.5 1.5h27q35 0 46.5 -6.5t11.5 -31.5q0 -10 -1.5 -24.5t-15.5 -23.5t-35 -9q-10 0 -28 2t-24 2q-11 0 -42 3t-48 3q-56 0 -88.5 -28.5t-32.5 -110.5q0 -73 49 -98t123 -25q16 0 42 1t34 1q13 0 32.5 1t43.5 3q31 0 47 -10.5t16 -41.5t-24 -40
t-72 -9h-37zM264 902q22 0 32.5 -12.5t10.5 -30.5q0 -17 -9.5 -29.5t-27.5 -12.5q-25 0 -39 13t-14 32q0 16 12 28t35 12zM456 902q21 -7 31.5 -19.5t10.5 -28.5t-10.5 -26.5t-28.5 -10.5q-24 0 -37.5 15.5t-13.5 35.5q0 37 33 37q7 0 15 -3z" />
    <glyph glyph-name="Egrave" unicode="&#xc8;" horiz-adv-x="667" 
d="M481 -12q-74 0 -133 2t-139 4q-97 0 -97 73q0 1 3 93t3 161q0 67 -4 133t-8 139q0 83 20 111.5t58 28.5q54 0 148.5 -2.5l166.5 -4.5h23q38 0 50 -10t12 -32q0 -29 -13.5 -35.5t-59.5 -6.5h-42q-21 0 -65.5 3.5t-58.5 3.5q-61 0 -95.5 -23t-34.5 -87q0 -66 49 -88.5
t124 -22.5q14 0 31.5 0.5t37.5 1.5h27q35 0 46.5 -6.5t11.5 -31.5q0 -10 -1.5 -24.5t-15.5 -23.5t-35 -9q-10 0 -28 2t-24 2q-11 0 -42 3t-48 3q-56 0 -88.5 -28.5t-32.5 -110.5q0 -73 49 -98t123 -25q16 0 42 1t34 1q13 0 32.5 1t43.5 3q31 0 47 -10.5t16 -41.5t-24 -40
t-72 -9h-37zM259 866q-28 19 -28 36q0 12 11 20t26 10q12 2 31.5 -4.5t32.5 -21.5l45.5 -71t19.5 -39q0 -11 -24 -11q-20 0 -58 34.5t-56 46.5z" />
    <glyph glyph-name="Iacute" unicode="&#xcd;" horiz-adv-x="278" 
d="M130 0q-20 0 -37 17t-17 50v12q4 43 4 101q0 51 -3.5 114.5t-6.5 129.5q0 24 4 71.5t14 139.5q1 35 1.5 57t33.5 22h13q50 0 56 -35l5.5 -61t2.5 -137q0 -100 -1 -186t-2 -162q1 -6 1 -12.5v-13.5q0 -45 -16 -76t-52 -31zM237 866q28 19 28 36q0 12 -11 20t-26 10
q-12 2 -31.5 -4.5t-32.5 -21.5l-45.5 -71t-19.5 -39q0 -11 24 -11q20 0 58 34.5t56 46.5z" />
    <glyph glyph-name="Icircumflex" unicode="&#xce;" horiz-adv-x="278" 
d="M130 0q-20 0 -37 17t-17 50v12q4 43 4 101q0 51 -3.5 114.5t-6.5 129.5q0 24 4 71.5t14 139.5q1 35 1.5 57t33.5 22h13q50 0 56 -35l5.5 -61t2.5 -137q0 -100 -1 -186t-2 -162q1 -6 1 -12.5v-13.5q0 -45 -16 -76t-52 -31zM234 842q9 -14 9 -22t-6 -8q-12 0 -42.5 30.5
t-58.5 30.5q-27 0 -43 -22.5t-27.5 -30t-20.5 -7.5q-10 0 -10 11q0 10 16.5 33.5l39.5 57.5q10 11 44 11q43 0 53 -11q19 -33 46 -73z" />
    <glyph glyph-name="Idieresis" unicode="&#xcf;" horiz-adv-x="278" 
d="M130 0q-20 0 -37 17t-17 50v12q4 43 4 101q0 51 -3.5 114.5t-6.5 129.5q0 24 4 71.5t14 139.5q1 35 1.5 57t33.5 22h13q50 0 56 -35l5.5 -61t2.5 -137q0 -100 -1 -186t-2 -162q1 -6 1 -12.5v-13.5q0 -45 -16 -76t-52 -31zM49 902q22 0 32.5 -12.5t10.5 -30.5
q0 -17 -9.5 -29.5t-27.5 -12.5q-25 0 -39 13t-14 32q0 16 12 28t35 12zM241 902q21 -7 31.5 -19.5t10.5 -28.5t-10.5 -26.5t-28.5 -10.5q-24 0 -37.5 15.5t-13.5 35.5q0 37 33 37q7 0 15 -3z" />
    <glyph glyph-name="Igrave" unicode="&#xcc;" horiz-adv-x="278" 
d="M130 0q-20 0 -37 17t-17 50v12q4 43 4 101q0 51 -3.5 114.5t-6.5 129.5q0 24 4 71.5t14 139.5q1 35 1.5 57t33.5 22h13q50 0 56 -35l5.5 -61t2.5 -137q0 -100 -1 -186t-2 -162q1 -6 1 -12.5v-13.5q0 -45 -16 -76t-52 -31zM44 866q-28 19 -28 36q0 12 11 20t26 10
q12 2 31.5 -4.5t32.5 -21.5l45.5 -71t19.5 -39q0 -11 -24 -11q-20 0 -58 34.5t-56 46.5z" />
    <glyph glyph-name="Oacute" unicode="&#xd3;" horiz-adv-x="778" 
d="M383 -16q-169 0 -260 104t-91 259q0 150 91.5 265.5t271.5 115.5q139 0 242 -94t103 -317q0 -333 -357 -333zM358 638h-15q-92 0 -150 -85.5t-58 -187.5q0 -161 78 -243.5t170 -82.5q86 0 164 87.5t78 226.5q0 137 -83.5 211t-183.5 74zM487 866q28 19 28 36q0 12 -11 20
t-26 10q-12 2 -31.5 -4.5t-32.5 -21.5l-45.5 -71t-19.5 -39q0 -11 24 -11q20 0 58 34.5t56 46.5z" />
    <glyph glyph-name="Ocircumflex" unicode="&#xd4;" horiz-adv-x="778" 
d="M383 -16q-169 0 -260 104t-91 259q0 150 91.5 265.5t271.5 115.5q139 0 242 -94t103 -317q0 -333 -357 -333zM358 638h-15q-92 0 -150 -85.5t-58 -187.5q0 -161 78 -243.5t170 -82.5q86 0 164 87.5t78 226.5q0 137 -83.5 211t-183.5 74zM484 842q9 -14 9 -22t-6 -8
q-12 0 -42.5 30.5t-58.5 30.5q-27 0 -43 -22.5t-27.5 -30t-20.5 -7.5q-10 0 -10 11q0 10 16.5 33.5l39.5 57.5q10 11 44 11q43 0 53 -11q19 -33 46 -73z" />
    <glyph glyph-name="Ograve" unicode="&#xd2;" horiz-adv-x="778" 
d="M383 -16q-169 0 -260 104t-91 259q0 150 91.5 265.5t271.5 115.5q139 0 242 -94t103 -317q0 -333 -357 -333zM358 638h-15q-92 0 -150 -85.5t-58 -187.5q0 -161 78 -243.5t170 -82.5q86 0 164 87.5t78 226.5q0 137 -83.5 211t-183.5 74zM294 866q-28 19 -28 36
q0 12 11 20t26 10q12 2 31.5 -4.5t32.5 -21.5l45.5 -71t19.5 -39q0 -11 -24 -11q-20 0 -58 34.5t-56 46.5z" />
    <glyph glyph-name="Uacute" unicode="&#xda;" horiz-adv-x="722" 
d="M642 211q-7 -83 -16 -117.5t-70 -73.5t-199 -39q-136 0 -198.5 75.5t-74 155.5t-11.5 168v242q0 56 20.5 79.5t52.5 23.5q25 0 45 -35.5t15 -61.5q-12 -60 -12 -248q0 -149 25.5 -234.5t143.5 -85.5q108 0 145.5 68t37.5 183q0 28 -3.5 85.5t-3.5 80.5q0 21 -0.5 42
t-0.5 41q0 79 13 119t54 40q33 0 44 -49t11 -126q0 -64 -5 -157t-13 -176zM461 866q28 19 28 36q0 12 -11 20t-26 10q-12 2 -31.5 -4.5t-32.5 -21.5l-45.5 -71t-19.5 -39q0 -11 24 -11q20 0 58 34.5t56 46.5z" />
    <glyph glyph-name="Ucircumflex" unicode="&#xdb;" horiz-adv-x="722" 
d="M642 211q-7 -83 -16 -117.5t-70 -73.5t-199 -39q-136 0 -198.5 75.5t-74 155.5t-11.5 168v242q0 56 20.5 79.5t52.5 23.5q25 0 45 -35.5t15 -61.5q-12 -60 -12 -248q0 -149 25.5 -234.5t143.5 -85.5q108 0 145.5 68t37.5 183q0 28 -3.5 85.5t-3.5 80.5q0 21 -0.5 42
t-0.5 41q0 79 13 119t54 40q33 0 44 -49t11 -126q0 -64 -5 -157t-13 -176zM458 842q9 -14 9 -22t-6 -8q-12 0 -42.5 30.5t-58.5 30.5q-27 0 -43 -22.5t-27.5 -30t-20.5 -7.5q-10 0 -10 11q0 10 16.5 33.5l39.5 57.5q10 11 44 11q43 0 53 -11q19 -33 46 -73z" />
    <glyph glyph-name="Ugrave" unicode="&#xd9;" horiz-adv-x="722" 
d="M642 211q-7 -83 -16 -117.5t-70 -73.5t-199 -39q-136 0 -198.5 75.5t-74 155.5t-11.5 168v242q0 56 20.5 79.5t52.5 23.5q25 0 45 -35.5t15 -61.5q-12 -60 -12 -248q0 -149 25.5 -234.5t143.5 -85.5q108 0 145.5 68t37.5 183q0 28 -3.5 85.5t-3.5 80.5q0 21 -0.5 42
t-0.5 41q0 79 13 119t54 40q33 0 44 -49t11 -126q0 -64 -5 -157t-13 -176zM268 866q-28 19 -28 36q0 12 11 20t26 10q12 2 31.5 -4.5t32.5 -21.5l45.5 -71t19.5 -39q0 -11 -24 -11q-20 0 -58 34.5t-56 46.5z" />
    <glyph glyph-name="dotlessi" unicode="&#x131;" horiz-adv-x="280" 
d="M137 3q-26 0 -37 15.5t-11 51.5q0 4 6 61t6 96q0 44 -9 113t-9 99q0 32 15.5 55.5t38.5 23.5q24 0 39 -22t15 -69v-339q0 -85 -54 -85z" />
    <glyph glyph-name="circumflexcmb" unicode="&#x302;" horiz-adv-x="333" 
d="M261 651q9 -14 9 -22t-6 -8q-12 0 -42.5 30.5t-58.5 30.5q-27 0 -43 -22.5t-27.5 -30t-20.5 -7.5q-10 0 -10 11q0 10 16.5 33.5l39.5 57.5q10 11 44 11q43 0 53 -11q19 -33 46 -73z" />
    <glyph glyph-name="tildecmb" unicode="&#x303;" horiz-adv-x="333" 
d="M156 648q77 -28 117 -28q26 0 36 10t6 24q-6 24 -28 24q-9 0 -29 -1.5t-25 -1.5q-15 0 -28.5 1t-30 5t-36.5 4q-47 0 -85.5 -20t-38.5 -33q0 -5 7 -5t18.5 19.5t38.5 19.5q13 0 32.5 -4.5t45.5 -13.5z" />
    <glyph glyph-name="firsttonechinese" unicode="&#x2c9;" horiz-adv-x="333" 
d="M260 626q-40 0 -112 9t-89 9q-18 0 -30 10t-12 22q0 23 42 23h207q20 0 31 -9t11 -34q-4 -11 -12.5 -20.5t-35.5 -9.5z" />
    <glyph glyph-name="breve" unicode="&#x2d8;" horiz-adv-x="333" 
d="M125 670h75q40 0 56 23t24 47q1 -7 2 -20t1 -19q0 -16 -1.5 -25t-10.5 -28t-41 -36t-70 -17q-31 0 -61 17.5t-38.5 35.5t-14.5 34t-6 28q0 18 15 25q8 4 23.5 -30.5t46.5 -34.5z" />
    <glyph glyph-name="dotaccent" unicode="&#x2d9;" horiz-adv-x="333" 
d="M220 669q0 -38 -13.5 -51t-41.5 -13q-32 0 -44 8.5t-12 51.5q0 49 6 57t45 8q33 0 46.5 -9t13.5 -52z" />
    <glyph glyph-name="ring" unicode="&#x2da;" horiz-adv-x="333" 
d="M167 745q38 0 64 -26t26 -64t-26 -64t-64 -26t-64 26t-26 64t26 64t64 26zM167 605q20 0 30 14t10 36q0 24 -10 42t-30 18q-21 0 -40.5 -19.5t-19.5 -40.5q0 -20 19 -35t41 -15z" />
    <glyph glyph-name="cedilla" unicode="&#xb8;" horiz-adv-x="333" 
d="M140 -78q10 -21 16 -26t34 -14q5 5 5 12q0 6 -5 24.5t-5 36.5q0 35 28 31q4 0 10 -1q-24 5 -65 12.5t-64 7.5q-12 0 -12 -3t15.5 -9.5t23.5 -25z" />
    <glyph glyph-name="dblprimemod" unicode="&#x2ba;" horiz-adv-x="333" 
d="M284 675q28 19 28 36q0 12 -11 20t-26 10q-12 2 -31.5 -4.5t-32.5 -21.5l-45.5 -71t-19.5 -39q0 -11 24 -11q20 0 58 34.5t56 46.5zM99 675q28 19 28 36q0 12 -11 20t-26 10q-12 2 -31.5 -4.5t-32.5 -21.5l-45.5 -71t-19.5 -39q0 -11 24 -11q20 0 58 34.5t56 46.5z" />
    <glyph glyph-name="ogonek" unicode="&#x2db;" horiz-adv-x="333" 
d="M140 -100q-8 9 -8 25t16.5 55.5t16.5 44.5q0 20 -30 20q-39 0 -65 -35t-26 -81q0 -22 4.5 -38.5t18 -37.5t41 -31.5t61.5 -10.5q41 0 73 14.5t32 35.5q0 8 -8.5 18t-21.5 10q-8 0 -29.5 -5.5t-30.5 -5.5q-13 0 -23 4.5t-21 17.5z" />
    <glyph glyph-name="caron" unicode="&#x2c7;" horiz-adv-x="333" 
d="M75 665q23 -32 41.5 -46t48.5 -14q33 0 53.5 15t44.5 42t35.5 44.5t11.5 26.5q0 12 -32 12q-20 0 -28.5 -9.5t-33.5 -41.5t-46 -32q-18 0 -45 35.5t-39 44t-41 8.5q-14 0 -14 -11q0 -13 16.5 -36.5t27.5 -37.5z" />
    </font>
</defs>
</svg>
